<?xml version="1.0" encoding="UTF-8"?>
<svg version="1.1" xmlns="http://www.w3.org/2000/svg" width="338" height="270">
<path d="M0 0 C111.54 0 223.08 0 338 0 C338 89.1 338 178.2 338 270 C226.46 270 114.92 270 0 270 C0 180.9 0 91.8 0 0 Z " fill="#16657A" transform="translate(0,0)"/>
<path d="M0 0 C0.66 0 1.32 0 2 0 C2.08636719 0.76183594 2.17273438 1.52367188 2.26171875 2.30859375 C3.51970002 11.55302491 6.40413881 19.19136909 13 26 C15.06598517 26.64312332 15.06598517 26.64312332 17 27 C17.87011719 26.00419922 17.87011719 26.00419922 18.7578125 24.98828125 C27.40481931 15.21402438 35.64320047 8.50856199 48 4 C48.71414062 3.69707031 49.42828125 3.39414063 50.1640625 3.08203125 C64.80702293 -2.42848213 82.80110127 0.50854261 96.94140625 6.1796875 C102.67571024 9.00093167 107.50737259 12.84752586 112.375 16.9375 C113.25019287 17.67226562 113.25019287 17.67226562 114.14306641 18.421875 C118.12990614 21.90849112 121.13294146 25.53834148 124 30 C124 30.66 124 31.32 124 32 C124.66 32 125.32 32 126 32 C133.50163742 46.26338731 133.50163742 46.26338731 135.19921875 54.20703125 C135.46347656 54.79871094 135.72773438 55.39039063 136 56 C138.0178602 56.82683788 138.0178602 56.82683788 140 57 C139.68015137 57.5576001 139.36030273 58.1152002 139.03076172 58.68969727 C137.88684897 61.2536116 137.66337277 63.16973472 137.5078125 65.96484375 C137.4449707 66.92350342 137.38212891 67.88216309 137.31738281 68.86987305 C137.25389648 69.88218994 137.19041016 70.89450684 137.125 71.9375 C135.61771061 91.74297499 129.06529773 109.42925663 113.8828125 122.875 C101.05351063 133.69588081 85.1151266 139.99521732 68.19921875 139.30859375 C49.08741337 137.46508627 32.38187016 129.00439551 19.8515625 114.40234375 C16.8367917 110.49077404 14.41283779 106.29897942 12 102 C11.44957031 101.11828125 10.89914062 100.2365625 10.33203125 99.328125 C9 97 9 97 9 95 C5.37 95 1.74 95 -2 95 C-2.04644194 83.94244706 -2.08192936 72.88491752 -2.10362434 61.82728672 C-2.11403944 56.69219569 -2.12815698 51.55717163 -2.15087891 46.42211914 C-2.17268853 41.46192203 -2.18458572 36.50178915 -2.18975449 31.54154778 C-2.1934357 29.6538282 -2.20062404 27.76611194 -2.21146011 25.87841988 C-2.22608305 23.2242906 -2.22797345 20.57042316 -2.22705078 17.91625977 C-2.23424133 17.14445374 -2.24143188 16.37264771 -2.24884033 15.57745361 C-2.22863186 10.1676913 -1.35748989 5.23153325 0 0 Z " fill="#000101" transform="translate(2,108)"/>
<path d="M0 0 C0.33 0 0.66 0 1 0 C1.33 6.27 1.66 12.54 2 19 C2.66 19.33 3.32 19.66 4 20 C3.34 21.32 2.68 22.64 2 24 C1.34 24 0.68 24 0 24 C0.33 25.98 0.66 27.96 1 30 C0.01 30 -0.98 30 -2 30 C-2.16788373 31.62487471 -2.33426787 33.24990442 -2.5 34.875 C-2.5928125 35.77992188 -2.685625 36.68484375 -2.78125 37.6171875 C-3.03047295 39.93313211 -3.03047295 39.93313211 -3 42 C-3 43.32 -3 44.64 -3 46 C-3.928125 46.165 -4.85625 46.33 -5.8125 46.5 C-9.01546788 47.62710795 -9.01546788 47.62710795 -9.9609375 49.73828125 C-10.45111086 51.13764714 -10.91682006 52.54579089 -11.359375 53.9609375 C-12.2009501 56.63960945 -13.30537652 58.76309701 -15 61 C-17.1875 61.8125 -17.1875 61.8125 -19 62 C-19 63.65 -19 65.3 -19 67 C-19.66 66.34 -20.32 65.68 -21 65 C-21.66 65.804375 -22.32 66.60875 -23 67.4375 C-26.87979228 70.75148924 -29.00014825 70.74577025 -34 71 C-34 72.65 -34 74.3 -34 76 C-34.99 76.495 -34.99 76.495 -36 77 C-36.66 76.01 -37.32 75.02 -38 74 C-38.99 74 -39.98 74 -41 74 C-41 74.99 -41 75.98 -41 77 C-42.093125 77.061875 -43.18625 77.12375 -44.3125 77.1875 C-48.1188751 77.60392469 -48.1188751 77.60392469 -49.8125 80.4375 C-50.204375 81.283125 -50.59625 82.12875 -51 83 C-51.66 83.66 -52.32 84.32 -53 85 C-53 85.33 -53 85.66 -53 86 C-51.73671875 85.96970703 -50.4734375 85.93941406 -49.171875 85.90820312 C-7.67968226 84.92917441 33.75170452 84.7371211 75.25 85.4375 C76.45763 85.4570575 77.66526001 85.47661499 78.90948486 85.49676514 C82.36163754 85.5542626 85.81362152 85.61779701 89.265625 85.68359375 C90.27613922 85.70031631 91.28665344 85.71703888 92.32778931 85.73426819 C99.2510855 85.8769612 106.10502932 86.37504401 113 87 C115.95722515 87.22965703 118.91498048 87.43511196 121.875 87.625 C122.93460937 87.70234375 122.93460937 87.70234375 124.015625 87.78125 C128.20194155 88.04581276 131.88395868 87.69763412 136 87 C138.2109375 87.3046875 138.2109375 87.3046875 140.375 87.875 C147.49246348 89.49062054 154.73258544 89.65736755 162 90 C162 89.34 162 88.68 162 88 C162.66 88 163.32 88 164 88 C164.33 88.66 164.66 89.32 165 90 C167.91652174 90.16681109 167.91652174 90.16681109 171 90 C171.66 89.34 172.32 88.68 173 88 C173.99 88 174.98 88 176 88 C176 89.32 176 90.64 176 92 C177.32 91.67 178.64 91.34 180 91 C180 91.66 180 92.32 180 93 C180.86882812 93.13277344 181.73765625 93.26554687 182.6328125 93.40234375 C183.78523438 93.57894531 184.93765625 93.75554687 186.125 93.9375 C187.26195312 94.11152344 188.39890625 94.28554688 189.5703125 94.46484375 C192.71732669 94.95589266 195.85930783 95.47018719 199 96 C199 97.32 199 98.64 199 100 C87.46 100 -24.08 100 -139 100 C-139 77.89 -139 55.78 -139 33 C-135.37 33 -131.74 33 -128 33 C-127.27296875 34.34191406 -127.27296875 34.34191406 -126.53125 35.7109375 C-116.53165206 53.87095312 -103.46975612 67.95974409 -83 74 C-64.60259345 78.57024182 -47.05934082 75.25891668 -30.78515625 65.8359375 C-25.73809049 62.50897971 -21.36514528 59.04771791 -18 54 C-17.34 54 -16.68 54 -16 54 C-15.73960938 53.45472656 -15.47921875 52.90945312 -15.2109375 52.34765625 C-13.80723075 49.62627638 -12.21930762 47.05174677 -10.625 44.4375 C-2.40483564 30.32137575 -0.9167125 16.09071683 0 0 Z " fill="#21A2B7" transform="translate(139,170)"/>
<path d="M0 0 C3.14475679 0.00096563 6.28950853 0.00001261 9.43426514 -0.0012207 C43.830924 -0.00614802 78.03773389 0.73026597 112.36785889 3.06347656 C114.36861444 3.19678067 116.36937002 3.33008441 118.37012959 3.46332836 C166.22665668 6.6616572 166.22665668 6.6616572 179.80535889 9.18847656 C179.80535889 10.50847656 179.80535889 11.82847656 179.80535889 13.18847656 C68.26535889 13.18847656 -43.27464111 13.18847656 -158.19464111 13.18847656 C-158.19464111 11.20847656 -158.19464111 9.22847656 -158.19464111 7.18847656 C-129.05561517 3.60682447 -129.05561517 3.60682447 -116.19464111 4.18847656 C-116.19464111 5.17847656 -116.19464111 6.16847656 -116.19464111 7.18847656 C-113.12859331 8.2104925 -111.10331977 8.29032192 -107.89776611 8.25097656 C-106.33542236 8.239375 -106.33542236 8.239375 -104.74151611 8.22753906 C-102.55922225 8.2016825 -100.37693053 8.1756435 -98.19464111 8.14941406 C-92.72788552 8.10901932 -87.58186088 8.26659938 -82.19464111 9.18847656 C-81.20464111 9.18847656 -80.21464111 9.18847656 -79.19464111 9.18847656 C-79.19464111 8.19847656 -79.19464111 7.20847656 -79.19464111 6.18847656 C-81.85382277 5.30208268 -83.67528752 5.00858632 -86.42510986 4.87207031 C-87.62877197 4.80922852 -87.62877197 4.80922852 -88.85675049 4.74511719 C-89.69012939 4.70580078 -90.5235083 4.66648437 -91.38214111 4.62597656 C-92.22712158 4.58279297 -93.07210205 4.53960937 -93.94268799 4.49511719 C-96.02648545 4.38916138 -98.11054215 4.28832636 -100.19464111 4.18847656 C-100.19464111 3.52847656 -100.19464111 2.86847656 -100.19464111 2.18847656 C-66.79438457 0.40256979 -33.44121126 -0.01275092 0 0 Z " fill="#88D5E2" transform="translate(158.19464111328125,256.8115234375)"/>
<path d="M0 0 C3.63 0 7.26 0 11 0 C11.4846875 0.89460937 11.969375 1.78921875 12.46875 2.7109375 C22.46834794 20.87095312 35.53024388 34.95974409 56 41 C65.85039787 43.6756271 75.8864943 43.1886457 86 43 C80.4916386 48.80885402 72.59111623 50.68000032 64.8125 51.22216797 C42.46514404 51.77896442 26.50700454 48.04888994 9.70703125 32.9375 C6.36648818 29.73697969 6.36648818 29.73697969 5 28 C5 27.34 5 26.68 5 26 C3.35 26 1.7 26 0 26 C0 17.42 0 8.84 0 0 Z " fill="#F8FAFA" transform="translate(0,203)"/>
<path d="M0 0 C5 0 5 0 6.59765625 1.43359375 C7.08105469 2.09488281 7.56445312 2.75617188 8.0625 3.4375 C17.67001082 15.08609145 31.09831486 21.97004908 46 24 C45.360625 24.268125 44.72125 24.53625 44.0625 24.8125 C41.66868314 25.88667752 41.66868314 25.88667752 41 29 C46.70690634 29.99250545 52.21408489 30.10477512 58 30 C58 30.66 58 31.32 58 32 C59.26457031 31.97679687 60.52914062 31.95359375 61.83203125 31.9296875 C63.4921816 31.91092874 65.15233833 31.89272865 66.8125 31.875 C68.06256836 31.84986328 68.06256836 31.84986328 69.33789062 31.82421875 C70.14033203 31.81777344 70.94277344 31.81132812 71.76953125 31.8046875 C72.50792236 31.79421387 73.24631348 31.78374023 74.00708008 31.77294922 C76 32 76 32 79 34 C79 34.99 79 35.98 79 37 C72.375 38.125 72.375 38.125 69 37 C67.20017398 36.9406495 65.39814809 36.93911045 63.59765625 36.97265625 C62.01500977 36.99102539 62.01500977 36.99102539 60.40039062 37.00976562 C58.17897024 37.04486121 55.95760873 37.08391011 53.73632812 37.12695312 C52.67994141 37.13791016 51.62355469 37.14886719 50.53515625 37.16015625 C49.569729 37.17699463 48.60430176 37.19383301 47.60961914 37.21118164 C44.91098878 36.99279683 43.30378228 36.37886895 41 35 C41 34.34 41 33.68 41 33 C31.65165916 32.71719305 22.57527841 33.30076661 13.28637695 34.28857422 C12.42874756 34.37896973 11.57111816 34.46936523 10.6875 34.5625 C9.92824219 34.64628906 9.16898438 34.73007812 8.38671875 34.81640625 C5.59871244 35.03086827 2.79624268 35 0 35 C0 23.45 0 11.9 0 0 Z " fill="#21A6BC" transform="translate(0,229)"/>
<path d="M0 0 C5.46542379 2.67694226 8.62862058 6.49197528 11 12 C12.65250213 18.47821387 12.31014232 23.20725095 9 29 C7.75 30.9375 7.75 30.9375 6 32 C2.37300898 32.71117471 0.07472068 32.6507483 -3.12890625 30.7109375 C-8.85444419 26.09254778 -11.42042311 21.73198856 -12.30859375 14.48046875 C-12.59606699 8.67002473 -11.83493563 5.39889676 -8 1 C-5.13391871 -0.43304064 -3.18699217 -0.30644155 0 0 Z " fill="#F4F4F4" transform="translate(118,143)"/>
<path d="M0 0 C1.32 0 2.64 0 4 0 C3.49396008 2.16874252 3.00016187 3.99967627 2 6 C2.37125 5.54625 2.7425 5.0925 3.125 4.625 C6.5470836 1.65919422 10.12552761 1.06136648 14.5625 0.75 C20.26771705 1.16492488 23.1882225 2.76469166 27 7 C24.39902318 8.30048841 21.86044938 8.56471422 19 9 C19.33 9 19.66 9 20 9 C22.33333333 9 24.66666667 9 27 9 C27.33 9.66 27.66 10.32 28 11 C25.69 11 23.38 11 21 11 C21 11.33 21 11.66 21 12 C22.3921875 11.87625 22.3921875 11.87625 23.8125 11.75 C27 12 27 12 28.6875 13.59375 C30.43051634 16.78927996 30.29601046 19.13298456 30.1875 22.75 C30.14689453 24.50570312 30.14689453 24.50570312 30.10546875 26.296875 C30.07066406 27.18890625 30.03585937 28.0809375 30 29 C29.01 28.01 28.02 27.02 27 26 C27.99 27.98 28.98 29.96 30 32 C30.66 32 31.32 32 32 32 C32 33.32 32 34.64 32 36 C26.72 35.67 21.44 35.34 16 35 C16 34.01 16 33.02 16 32 C15.814375 31.319375 15.62875 30.63875 15.4375 29.9375 C15 28 15 28 16 26 C15.34 25.67 14.68 25.34 14 25 C14.01160156 24.41992188 14.02320313 23.83984375 14.03515625 23.2421875 C14.08762174 18.7001754 13.91751063 14.47286431 13 10 C12.16855469 10.02320313 11.33710938 10.04640625 10.48046875 10.0703125 C8.85044922 10.09738281 8.85044922 10.09738281 7.1875 10.125 C6.10855469 10.14820313 5.02960938 10.17140625 3.91796875 10.1953125 C1 10 1 10 -2 8 C-2.1875 4.875 -2.1875 4.875 -2 2 C-1.34 2 -0.68 2 0 2 C0 1.34 0 0.68 0 0 Z " fill="#24AAC1" transform="translate(306,230)"/>
<path d="M0 0 C0.33 0 0.66 0 1 0 C1.05059881 6.22961977 1.08569062 12.4591868 1.10986328 18.68896484 C1.11993751 20.8094277 1.13359733 22.92987661 1.15087891 25.05029297 C1.17506489 28.09345943 1.18646869 31.13644266 1.1953125 34.1796875 C1.20563507 35.13181122 1.21595764 36.08393494 1.22659302 37.06491089 C1.22681961 38.38605392 1.22681961 38.38605392 1.22705078 39.73388672 C1.231492 40.51110077 1.23593323 41.28831482 1.24050903 42.08908081 C1 44 1 44 -1 46 C-1.24234375 45.44570313 -1.4846875 44.89140625 -1.734375 44.3203125 C-2.06953125 43.59585938 -2.4046875 42.87140625 -2.75 42.125 C-3.07484375 41.40570313 -3.3996875 40.68640625 -3.734375 39.9453125 C-5.21929686 37.6629326 -6.50415408 36.99624102 -9 36 C-6.625 35.875 -6.625 35.875 -4 36 C-3.34 36.66 -2.68 37.32 -2 38 C-1.94583812 36.39620659 -1.90713362 34.79188594 -1.875 33.1875 C-1.85179687 32.29417969 -1.82859375 31.40085938 -1.8046875 30.48046875 C-1.81714173 27.74597286 -1.81714173 27.74597286 -4 25 C-5.97747122 24.63702064 -5.97747122 24.63702064 -8.125 24.8125 C-9.40375 24.874375 -10.6825 24.93625 -12 25 C-11.34 24.01 -10.68 23.02 -10 22 C-10.33 22 -10.66 22 -11 22 C-11.99 22 -12.98 22 -14 22 C-10.55930376 19.70620251 -9.27709699 19 -5 19 C-5 18.34 -5 17.68 -5 17 C-10.07758776 14.2798637 -14.19838828 13.60667039 -20 14 C-24.16060239 15.48089238 -27.6146355 17.15629382 -31 20 C-29 16 -29 16 -27 12 C-27.8971875 11.8453125 -27.8971875 11.8453125 -28.8125 11.6875 C-31.28243264 10.91123545 -32.32251235 9.92911079 -34 8 C-33.67 7.34 -33.34 6.68 -33 6 C-31.9275 6.165 -30.855 6.33 -29.75 6.5 C-23.88010485 7.28265269 -18.17951208 6.75093992 -12.3125 6.26757812 C-7.21970471 5.89014764 -7.21970471 5.89014764 -5 7 C-4.67 6.01 -4.34 5.02 -4 4 C-4 4.66 -4 5.32 -4 6 C-3.34 6 -2.68 6 -2 6 C-1.855625 5.195625 -1.71125 4.39125 -1.5625 3.5625 C-1 1 -1 1 0 0 Z " fill="#2EA5B8" transform="translate(337,218)"/>
<path d="M0 0 C1.20599854 0.0195575 2.41199707 0.03911499 3.65454102 0.05926514 C7.10834108 0.11678118 10.56197342 0.1803146 14.015625 0.24609375 C15.02622986 0.26281631 16.03683472 0.27953888 17.07806396 0.29676819 C24.00126714 0.43947265 30.85512153 0.93755237 37.75 1.5625 C40.70722515 1.79215703 43.66498048 1.99761196 46.625 2.1875 C47.33140625 2.2390625 48.0378125 2.290625 48.765625 2.34375 C52.95194155 2.60831276 56.63395868 2.26013412 60.75 1.5625 C62.9609375 1.8671875 62.9609375 1.8671875 65.125 2.4375 C72.24246348 4.05312054 79.48258544 4.21986755 86.75 4.5625 C86.75 3.9025 86.75 3.2425 86.75 2.5625 C87.41 2.5625 88.07 2.5625 88.75 2.5625 C89.08 3.2225 89.41 3.8825 89.75 4.5625 C92.66652174 4.72931109 92.66652174 4.72931109 95.75 4.5625 C96.41 3.9025 97.07 3.2425 97.75 2.5625 C98.74 2.5625 99.73 2.5625 100.75 2.5625 C100.75 3.8825 100.75 5.2025 100.75 6.5625 C102.07 6.2325 103.39 5.9025 104.75 5.5625 C104.75 6.2225 104.75 6.8825 104.75 7.5625 C99.52679533 8.49214401 94.73216187 8.5366869 89.44140625 8.07421875 C88.65060165 8.01159348 87.85979706 7.9489682 87.04502869 7.88444519 C85.349094 7.74950856 83.65342213 7.61123429 81.95800781 7.46990967 C77.44338982 7.09462892 72.92659076 6.74714316 68.41015625 6.39453125 C67.04662521 6.2869751 67.04662521 6.2869751 65.6555481 6.17724609 C24.90477852 2.97023205 -15.79865158 2.36931792 -56.65771484 2.03027344 C-62.71975006 1.97918656 -68.78174764 1.92396532 -74.84375 1.86914062 C-86.64580088 1.76298793 -98.44788504 1.66125298 -110.25 1.5625 C-110.25 1.2325 -110.25 0.9025 -110.25 0.5625 C-73.50876219 -0.98762404 -36.76010695 -0.6234304 0 0 Z " fill="#1C8EA0" transform="translate(214.25,255.4375)"/>
<path d="M0 0 C1 4 1 4 1 8 C1.825 7.87625 2.65 7.7525 3.5 7.625 C8.48110188 8.15868949 11.27021373 10.81926856 15 14 C14.01 14.66 13.02 15.32 12 16 C11.14019531 15.52949219 10.28039062 15.05898437 9.39453125 14.57421875 C-6.33976422 6.18124623 -24.04784156 2.68417256 -41.59594727 7.49145508 C-47.93351843 9.47027798 -53.65717352 12.14728456 -59.1796875 15.86328125 C-61 17 -61 17 -63 17 C-63.33 17.99 -63.66 18.98 -64 20 C-65.95597184 21.39712274 -67.95436401 22.73779907 -70 24 C-70.33 22.35 -70.66 20.7 -71 19 C-70.278125 18.5875 -69.55625 18.175 -68.8125 17.75 C-65.96961182 16.07546842 -65.96961182 16.07546842 -63.5625 13.9375 C-60.74788776 11.80937855 -58.369839 10.98286971 -55 10 C-53.6696875 9.443125 -53.6696875 9.443125 -52.3125 8.875 C-50 8 -50 8 -47 8 C-47 6.68 -47 5.36 -47 4 C-45.71254964 3.61077082 -44.41980403 3.23901964 -43.125 2.875 C-42.04605469 2.56175781 -42.04605469 2.56175781 -40.9453125 2.2421875 C-40.30335937 2.16226563 -39.66140625 2.08234375 -39 2 C-38.34 2.66 -37.68 3.32 -37 4 C-35.66082739 3.69096017 -34.32911682 3.34976758 -33 3 C-30.32680103 2.90269965 -27.67628708 2.95539522 -25 3 C-25 2.34 -25 1.68 -25 1 C-24.34 1 -23.68 1 -23 1 C-23 1.66 -23 2.32 -23 3 C-21.02 3 -19.04 3 -17 3 C-16.67 2.34 -16.34 1.68 -16 1 C-14.02 1.99 -12.04 2.98 -10 4 C-10.495 2.515 -10.495 2.515 -11 1 C-7.37 0.67 -3.74 0.34 0 0 Z " fill="#134F64" transform="translate(95,104)"/>
<path d="M0 0 C0 0.99 0 1.98 0 3 C-5.04811682 5.41104087 -9.35763824 5.08008829 -14.84375 4.875 C-18.07481308 5.00296289 -20.06768868 5.72508203 -23 7 C-28.54604673 7.35780947 -32.74746017 6.75084661 -38 5 C-37.67 3.68 -37.34 2.36 -37 1 C-33.89895738 0.0862357 -31.16428713 -0.10527037 -27.9375 -0.0625 C-26.49503906 -0.05089844 -26.49503906 -0.05089844 -25.0234375 -0.0390625 C-23.0078125 -0.01302083 -20.9921875 0.01302083 -18.9765625 0.0390625 C-17.53410156 0.05066406 -17.53410156 0.05066406 -16.0625 0.0625 C-15.18722656 0.07410156 -14.31195313 0.08570313 -13.41015625 0.09765625 C-11.03171184 0.08489642 -11.03171184 0.08489642 -8.91796875 -0.53125 C-5.86580479 -1.27719639 -3.0548496 -0.52872397 0 0 Z " fill="#0A1214" transform="translate(79,253)"/>
<path d="M0 0 C4.29 0 8.58 0 13 0 C13 0.66 13 1.32 13 2 C14.26457031 1.97679687 15.52914062 1.95359375 16.83203125 1.9296875 C18.4921816 1.91092874 20.15233833 1.89272865 21.8125 1.875 C23.06256836 1.84986328 23.06256836 1.84986328 24.33789062 1.82421875 C25.14033203 1.81777344 25.94277344 1.81132812 26.76953125 1.8046875 C27.50792236 1.79421387 28.24631348 1.78374023 29.00708008 1.77294922 C31 2 31 2 34 4 C34 4.99 34 5.98 34 7 C27.375 8.125 27.375 8.125 24 7 C22.20017398 6.9406495 20.39814809 6.93911045 18.59765625 6.97265625 C17.01500977 6.99102539 17.01500977 6.99102539 15.40039062 7.00976562 C13.17897024 7.04486121 10.95760873 7.08391011 8.73632812 7.12695312 C7.67994141 7.13791016 6.62355469 7.14886719 5.53515625 7.16015625 C4.569729 7.17699463 3.60430176 7.19383301 2.60961914 7.21118164 C-0.08901122 6.99279683 -1.69621772 6.37886895 -4 5 C-3.67 4.01 -3.34 3.02 -3 2 C-2.01 2 -1.02 2 0 2 C0 1.34 0 0.68 0 0 Z " fill="#5E959E" transform="translate(45,259)"/>
<path d="M0 0 C0 0.66 0 1.32 0 2 C0.66 2.33 1.32 2.66 2 3 C-13.84 3 -29.68 3 -46 3 C-45.01 2.67 -44.02 2.34 -43 2 C-43 1.34 -43 0.68 -43 0 C-38.08023684 -0.93224811 -33.239174 -1.30893724 -28.25 -1.5625 C-27.45086182 -1.6035083 -26.65172363 -1.6445166 -25.82836914 -1.68676758 C-16.83793259 -2.1280216 -8.76231536 -2.37048145 0 0 Z " fill="#A6E0EB" transform="translate(78,267)"/>
<path d="M0 0 C0.33 0 0.66 0 1 0 C1.33 6.27 1.66 12.54 2 19 C2.66 19.33 3.32 19.66 4 20 C3.34 21.32 2.68 22.64 2 24 C1.34 24 0.68 24 0 24 C0.33 25.98 0.66 27.96 1 30 C0.01 30 -0.98 30 -2 30 C-2.16788373 31.62487471 -2.33426787 33.24990442 -2.5 34.875 C-2.63921875 36.23238281 -2.63921875 36.23238281 -2.78125 37.6171875 C-3.03047295 39.93313211 -3.03047295 39.93313211 -3 42 C-3 43.32 -3 44.64 -3 46 C-3.969375 46.268125 -4.93875 46.53625 -5.9375 46.8125 C-7.4534375 47.4003125 -7.4534375 47.4003125 -9 48 C-9.33 48.99 -9.66 49.98 -10 51 C-10.99 51 -11.98 51 -13 51 C-13.4640625 51.928125 -13.4640625 51.928125 -13.9375 52.875 C-14.625 54.25 -15.3125 55.625 -16 57 C-16.99 57 -17.98 57 -19 57 C-18.67 56.01 -18.34 55.02 -18 54 C-17.34 54 -16.68 54 -16 54 C-15.73960938 53.45472656 -15.47921875 52.90945312 -15.2109375 52.34765625 C-13.80723075 49.62627638 -12.21930762 47.05174677 -10.625 44.4375 C-2.40483564 30.32137575 -0.9167125 16.09071683 0 0 Z " fill="#278598" transform="translate(139,170)"/>
<path d="M0 0 C1.0725 0.165 2.145 0.33 3.25 0.5 C9.11989515 1.28265269 14.82048792 0.75093992 20.6875 0.26757812 C25.78029529 -0.10985236 25.78029529 -0.10985236 28 1 C28 2.32 28 3.64 28 5 C24.04 5 20.08 5 16 5 C18.64 5.66 21.28 6.32 24 7 C20 8 20 8 16.6875 7.875 C10.89714811 8.07128312 6.40170568 10.30256723 2 14 C3.33333333 11.33333333 4.66666667 8.66666667 6 6 C5.401875 5.896875 4.80375 5.79375 4.1875 5.6875 C1.71756736 4.91123545 0.67748765 3.92911079 -1 2 C-0.67 1.34 -0.34 0.68 0 0 Z " fill="#1EA1B7" transform="translate(304,224)"/>
<path d="M0 0 C2.50247275 3.02441707 3.84593265 5.86126182 5.125 9.5625 C5.45757812 10.51253906 5.79015625 11.46257812 6.1328125 12.44140625 C6.7602318 14.29257581 7.38189938 16.14569815 8 18 C10.01508358 18.73323796 10.01508358 18.73323796 12 19 C11.68232666 19.55179932 11.36465332 20.10359863 11.03735352 20.67211914 C9.86463169 23.30377427 9.6131877 25.37775332 9.40234375 28.24609375 C9.28342773 29.74946289 9.28342773 29.74946289 9.16210938 31.28320312 C9.08798828 32.32412109 9.01386719 33.36503906 8.9375 34.4375 C8.78247938 36.49888985 8.6250111 38.56009741 8.46484375 40.62109375 C8.36610962 41.98899048 8.36610962 41.98899048 8.26538086 43.38452148 C8.00269558 45.97343357 7.55309436 48.4587479 7 51 C6.67 51 6.34 51 6 51 C6.04600342 50.18845459 6.09200684 49.37690918 6.1394043 48.54077148 C6.33938963 44.84038239 6.51366803 41.1392061 6.6875 37.4375 C6.76033203 36.16068359 6.83316406 34.88386719 6.90820312 33.56835938 C7.40088939 24.33461513 7.40088939 24.33461513 4 16 C2.7315625 15.566875 2.7315625 15.566875 1.4375 15.125 C-1 14 -1 14 -1.87109375 12.06640625 C-2.94051522 8.02120331 -3.37422557 5.83350241 -1.625 1.9375 C-1.08875 1.298125 -0.5525 0.65875 0 0 Z " fill="#051418" transform="translate(130,146)"/>
<path d="M0 0 C3.25 0.0625 3.25 0.0625 7 1 C8.8544092 3.2231534 9.78559244 5.32830337 11 8 C11.66 8 12.32 8 13 8 C13 9.32 13 10.64 13 12 C7.72 11.67 2.44 11.34 -3 11 C-3 10.01 -3 9.02 -3 8 C-3.3062434 6.66018514 -3.63451555 5.32488113 -4 4 C-3.34 4 -2.68 4 -2 4 C-1.34 2.68 -0.68 1.36 0 0 Z " fill="#219EB2" transform="translate(325,254)"/>
<path d="M0 0 C0 0.99 0 1.98 0 3 C1.32 3.33 2.64 3.66 4 4 C4 4.66 4 5.32 4 6 C-27.32040447 8.18137854 -27.32040447 8.18137854 -41 9 C-41 8.34 -41 7.68 -41 7 C-40.0553186 6.92483154 -40.0553186 6.92483154 -39.09155273 6.84814453 C-36.20622436 6.61439238 -33.3219127 6.36978233 -30.4375 6.125 C-28.9515332 6.00705078 -28.9515332 6.00705078 -27.43554688 5.88671875 C-22.07111286 5.42334571 -17.04719611 4.93758132 -12 3 C-11.34 2.01 -10.68 1.02 -10 0 C-6.30581799 -1.231394 -3.7943739 -0.64432764 0 0 Z " fill="#1D96A9" transform="translate(41,255)"/>
<path d="M0 0 C3.59059983 0.99738884 4.91172765 1.88720756 7.25 4.875 C10.27908589 10.28408195 10.18270736 15.05751498 10.1875 21.125 C10.19974609 21.94871094 10.21199219 22.77242187 10.22460938 23.62109375 C10.22983265 25.74870714 10.1226232 27.87591677 10 30 C9.34 30.66 8.68 31.32 8 32 C7.75765625 31.44570313 7.5153125 30.89140625 7.265625 30.3203125 C6.93046875 29.59585937 6.5953125 28.87140625 6.25 28.125 C5.92515625 27.40570313 5.6003125 26.68640625 5.265625 25.9453125 C3.78070314 23.6629326 2.49584592 22.99624102 0 22 C2.375 21.875 2.375 21.875 5 22 C5.66 22.66 6.32 23.32 7 24 C7.05416188 22.39620659 7.09286638 20.79188594 7.125 19.1875 C7.15980469 17.84751953 7.15980469 17.84751953 7.1953125 16.48046875 C7.18285827 13.74597286 7.18285827 13.74597286 5 11 C3.02252878 10.63702064 3.02252878 10.63702064 0.875 10.8125 C-0.40375 10.874375 -1.6825 10.93625 -3 11 C-2.34 10.01 -1.68 9.02 -1 8 C-1.33 8 -1.66 8 -2 8 C-2.99 8 -3.98 8 -5 8 C-1.55930376 5.70620251 -0.27709699 5 4 5 C4 4.34 4 3.68 4 3 C2.68 2.34 1.36 1.68 0 1 C0 0.67 0 0.34 0 0 Z " fill="#0B3D49" transform="translate(328,232)"/>
<path d="M0 0 C2.03538335 0.26471448 4.07096195 0.52768727 6.10693359 0.7878418 C7.5139531 0.96816726 8.92055128 1.15181749 10.32666016 1.33911133 C13.90945348 1.80192886 17.38703299 2.10502811 21 2 C21 1.34 21 0.68 21 0 C21.66 0 22.32 0 23 0 C23.495 0.99 23.495 0.99 24 2 C26.91652174 2.16681109 26.91652174 2.16681109 30 2 C30.66 1.34 31.32 0.68 32 0 C32.99 0 33.98 0 35 0 C35 1.32 35 2.64 35 4 C36.32 3.67 37.64 3.34 39 3 C39 3.66 39 4.32 39 5 C33.41802858 6.0109965 28.31654797 5.96454708 22.671875 5.546875 C21.80105286 5.48598694 20.93023071 5.42509888 20.03302002 5.36236572 C18.20401991 5.23167303 16.3753014 5.0969839 14.546875 4.95849609 C11.74566141 4.74967658 8.94350904 4.56377106 6.140625 4.37890625 C4.35927277 4.24878793 2.57801816 4.11732454 0.796875 3.984375 C-0.04063293 3.93110046 -0.87814087 3.87782593 -1.74102783 3.82293701 C-5.96179843 3.48081278 -8.22273192 3.22905825 -11 0 C-7.579223 -1.7103885 -3.69682733 -0.48514794 0 0 Z " fill="#1F92A4" transform="translate(280,258)"/>
<path d="M0 0 C4.75 0.75 4.75 0.75 7 3 C8.31747324 3.69748583 9.64914193 4.36959957 11 5 C10.09515208 6.15518918 9.1755794 7.29885406 8.25 8.4375 C7.73953125 9.07558594 7.2290625 9.71367188 6.703125 10.37109375 C4.77486176 12.21532717 3.63049736 12.70300836 1 13 C-1.25 12.0625 -1.25 12.0625 -3 11 C-2.53199289 6.94393835 -2.12046792 3.53411321 0 0 Z " fill="#164C5D" transform="translate(243,52)"/>
<path d="M0 0 C0.66 0 1.32 0 2 0 C2.33 0.66 2.66 1.32 3 2 C5.76971927 2.92323976 7.32299586 3.10775308 10.16796875 3.0625 C10.97943359 3.05476563 11.79089844 3.04703125 12.62695312 3.0390625 C14.3144577 3.01331872 16.00195786 2.98728403 17.68945312 2.9609375 C22.89907629 2.91167392 27.84403941 3.23879705 33 4 C33 4.33 33 4.66 33 5 C15.65725901 5.9051736 -1.63540299 6.12585848 -19 6 C-18.67 5.34 -18.34 4.68 -18 4 C-17.11957031 4.01160156 -16.23914062 4.02320313 -15.33203125 4.03515625 C-14.17058594 4.04417969 -13.00914063 4.05320312 -11.8125 4.0625 C-10.66394531 4.07410156 -9.51539062 4.08570313 -8.33203125 4.09765625 C-5.40699414 4.01192832 -2.83683709 3.67849023 0 3 C0 2.01 0 1.02 0 0 Z " fill="#2D97A7" transform="translate(79,253)"/>
<path d="M0 0 C0.66 0 1.32 0 2 0 C2.36256858 1.4562672 2.71479793 2.91511185 3.0625 4.375 C3.25972656 5.18710938 3.45695313 5.99921875 3.66015625 6.8359375 C4 9 4 9 3 11 C1.68 11 0.36 11 -1 11 C-1 11.66 -1 12.32 -1 13 C-2.32 13 -3.64 13 -5 13 C-7.125 10.0625 -7.125 10.0625 -9 7 C-9.66 6.67 -10.32 6.34 -11 6 C-11 5.34 -11 4.68 -11 4 C-8.03 4.99 -5.06 5.98 -2 7 C-1.855625 6.030625 -1.71125 5.06125 -1.5625 4.0625 C-1 1 -1 1 0 0 Z " fill="#061C26" transform="translate(240,69)"/>
<path d="M0 0 C0.99 0 1.98 0 3 0 C5.82418928 2.87772841 6.40054109 5.16743502 6.625 9.125 C6.79582344 12.69910419 6.79582344 12.69910419 8 16 C8.99 16.33 9.98 16.66 11 17 C10.34 17.33 9.68 17.66 9 18 C9.33 20.31 9.66 22.62 10 25 C5.77140995 21.37549424 3.66544003 16.45660826 3 11 C2.96175377 8.66698014 2.95425716 6.33288492 3 4 C2.34 4 1.68 4 1 4 C0.67 6.97 0.34 9.94 0 13 C-0.33 13 -0.66 13 -1 13 C-1.02686553 11.02090602 -1.04633375 9.04171029 -1.0625 7.0625 C-1.07410156 5.96035156 -1.08570312 4.85820313 -1.09765625 3.72265625 C-1 1 -1 1 0 0 Z " fill="#195165" transform="translate(1,104)"/>
<path d="M0 0 C0.33 0 0.66 0 1 0 C1 4 1 8 1 12 C0.030625 12.268125 -0.93875 12.53625 -1.9375 12.8125 C-2.948125 13.204375 -3.95875 13.59625 -5 14 C-5.33 14.99 -5.66 15.98 -6 17 C-6.99 17 -7.98 17 -9 17 C-9.309375 17.61875 -9.61875 18.2375 -9.9375 18.875 C-10.625 20.25 -11.3125 21.625 -12 23 C-12.99 23 -13.98 23 -15 23 C-14.505 21.515 -14.505 21.515 -14 20 C-13.34 20 -12.68 20 -12 20 C-11.72414063 19.43796875 -11.44828125 18.8759375 -11.1640625 18.296875 C-9.95631972 15.91381206 -8.67823191 13.5820992 -7.375 11.25 C-6.92898437 10.45078125 -6.48296875 9.6515625 -6.0234375 8.828125 C-5.68570313 8.22484375 -5.34796875 7.6215625 -5 7 C-4.34 7 -3.68 7 -3 7 C-2.01 4.69 -1.02 2.38 0 0 Z " fill="#2C94A6" transform="translate(135,204)"/>
<path d="M0 0 C2.6875 0.3125 2.6875 0.3125 5 1 C4.67 2.32 4.34 3.64 4 5 C4.56589844 5.17015625 5.13179687 5.3403125 5.71484375 5.515625 C6.44832031 5.75796875 7.18179688 6.0003125 7.9375 6.25 C9.03384766 6.59804687 9.03384766 6.59804687 10.15234375 6.953125 C12 8 12 8 12.75390625 10.109375 C12.83511719 10.73328125 12.91632813 11.3571875 13 12 C12.01 12 11.02 12 10 12 C9.34 12.66 8.68 13.32 8 14 C7.29875 13.113125 6.5975 12.22625 5.875 11.3125 C3.20878959 8.09624045 0.27259219 5.58763104 -3 3 C-1.8125 1.4375 -1.8125 1.4375 0 0 Z " fill="#16576B" transform="translate(114,120)"/>
<path d="M0 0 C0.33 0.66 0.66 1.32 1 2 C3.64 2 6.28 2 9 2 C9 5.90838866 7.49432124 7.11594107 5 10 C1.59679258 8.98823563 0.24274669 8.35156418 -1.8125 5.375 C-2.4003125 4.199375 -2.4003125 4.199375 -3 3 C-2.01 2.67 -1.02 2.34 0 2 C0 1.34 0 0.68 0 0 Z " fill="#16566A" transform="translate(14,126)"/>
<path d="M0 0 C1.32 0 2.64 0 4 0 C4 0.66 4 1.32 4 2 C4.61875 2.226875 5.2375 2.45375 5.875 2.6875 C8.61410209 4.37929835 9.05024472 5.99244161 10 9 C11.32 9 12.64 9 14 9 C14 8.34 14 7.68 14 7 C14.99 7.33 15.98 7.66 17 8 C15.3125 9.625 15.3125 9.625 13 11 C10.25 10.1875 10.25 10.1875 8 9 C8 8.34 8 7.68 8 7 C5.36 7 2.72 7 0 7 C0 4.69 0 2.38 0 0 Z " fill="#134D61" transform="translate(225,73)"/>
<path d="M0 0 C0.33 0 0.66 0 1 0 C1 7.92 1 15.84 1 24 C-2.615193 16.76961401 -3.11950979 10.19816172 -1 2.25 C-0.67 1.5075 -0.34 0.765 0 0 Z " fill="#1F7384" transform="translate(337,220)"/>
<path d="M0 0 C0.99 0.33 1.98 0.66 3 1 C2.26674793 2.48754006 1.51273922 3.96486192 0.75 5.4375 C0.12351562 6.67306641 0.12351562 6.67306641 -0.515625 7.93359375 C-2 10 -2 10 -4.171875 10.78515625 C-5.07679687 10.89150391 -5.07679687 10.89150391 -6 11 C-6 12.65 -6 14.3 -6 16 C-6.66 15.34 -7.32 14.68 -8 14 C-8.99 14.495 -8.99 14.495 -10 15 C-9.67 13.35 -9.34 11.7 -9 10 C-8.34 10 -7.68 10 -7 10 C-6.34 8.68 -5.68 7.36 -5 6 C-4.34 6 -3.68 6 -3 6 C-2.690625 5.38125 -2.38125 4.7625 -2.0625 4.125 C-1.375 2.75 -0.6875 1.375 0 0 Z " fill="#1B9EB4" transform="translate(126,221)"/>
<path d="M0 0 C9.9 0 19.8 0 30 0 C30 0.33 30 0.66 30 1 C29.07767578 1.09087891 29.07767578 1.09087891 28.13671875 1.18359375 C27.32847656 1.26738281 26.52023438 1.35117187 25.6875 1.4375 C24.88699219 1.51871094 24.08648437 1.59992188 23.26171875 1.68359375 C20.83912821 1.95265693 20.83912821 1.95265693 18 3 C16.00708008 3.02172852 16.00708008 3.02172852 13.76953125 2.87890625 C12.96708984 2.83056641 12.16464844 2.78222656 11.33789062 2.73242188 C10.08782227 2.64831055 10.08782227 2.64831055 8.8125 2.5625 C7.5450293 2.48418945 7.5450293 2.48418945 6.25195312 2.40429688 C4.16763701 2.27476311 2.08376818 2.13806823 0 2 C0 1.34 0 0.68 0 0 Z " fill="#8EDCEA" transform="translate(58,259)"/>
<path d="M0 0 C2.31 0 4.62 0 7 0 C7.93423645 3.01031744 8.04449911 3.86650268 7 7 C4.05610218 8.17755913 3.10046087 8.03348696 0 7 C0 4.69 0 2.38 0 0 Z " fill="#8DAAB6" transform="translate(297,30)"/>
<path d="M0 0 C0.66 0 1.32 0 2 0 C2.66 4.62 3.32 9.24 4 14 C2.68 14.33 1.36 14.66 0 15 C-0.66 15.99 -1.32 16.98 -2 18 C-2.20190089 11.64012196 -1.6277833 6.14778871 0 0 Z " fill="#030D14" transform="translate(2,108)"/>
<path d="M0 0 C5 0 5 0 6.984375 1.6796875 C7.56703125 2.40414062 8.1496875 3.12859375 8.75 3.875 C9.34296875 4.59429687 9.9359375 5.31359375 10.546875 6.0546875 C12 8 12 8 13 10 C10.04590299 8.62845496 7.55991624 7.01136276 5 5 C4.67 5.66 4.34 6.32 4 7 C3.67 6.67 3.34 6.34 3 6 C2.34 7.32 1.68 8.64 1 10 C0.67 10 0.34 10 0 10 C0 6.7 0 3.4 0 0 Z " fill="#229CB0" transform="translate(0,229)"/>
<path d="M0 0 C1.9375 1.5 1.9375 1.5 2.6875 5.125 C2.77 6.23875 2.8525 7.3525 2.9375 8.5 C1.9475 8.83 0.9575 9.16 -0.0625 9.5 C-4.00096154 6.17692308 -4.00096154 6.17692308 -4.3125 2.75 C-4.23 2.0075 -4.1475 1.265 -4.0625 0.5 C-2.0625 -0.5 -2.0625 -0.5 0 0 Z " fill="#131313" transform="translate(122.0625,147.5)"/>
<path d="M0 0 C0.6875 2.0625 0.6875 2.0625 1 4 C-0.32 4.99 -1.64 5.98 -3 7 C-3.33 5.02 -3.66 3.04 -4 1 C-6.50037734 3.17424117 -7.43628586 4.73045798 -8 8 C-12.75 7.25 -12.75 7.25 -15 5 C-13.8553125 4.87625 -13.8553125 4.87625 -12.6875 4.75 C-9.40967674 3.83525863 -8.93044604 2.68583797 -7 0 C-4.00887259 -1.21514551 -3.16098841 -1.0536628 0 0 Z " fill="#144B5E" transform="translate(246,68)"/>
<path d="M0 0 C0.66 0 1.32 0 2 0 C2.33 1.65 2.66 3.3 3 5 C3.598125 4.484375 4.19625 3.96875 4.8125 3.4375 C5.534375 2.963125 6.25625 2.48875 7 2 C7.99 2.33 8.98 2.66 10 3 C9.04882866 4.1725131 8.08882991 5.33787015 7.125 6.5 C6.59132812 7.1496875 6.05765625 7.799375 5.5078125 8.46875 C4.76144531 9.22671875 4.76144531 9.22671875 4 10 C3.34 10 2.68 10 2 10 C2 9.34 2 8.68 2 8 C1.01 8 0.02 8 -1 8 C-0.67 5.36 -0.34 2.72 0 0 Z " fill="#041723" transform="translate(244,54)"/>
<path d="M0 0 C-0.99 0.33 -1.98 0.66 -3 1 C-3 1.99 -3 2.98 -3 4 C-6.71402974 5.23800991 -9.16991798 4.6155489 -13 4 C-13.99 4 -14.98 4 -16 4 C-16.33 3.34 -16.66 2.68 -17 2 C-15.10787298 1.46585888 -13.21108364 0.94821671 -11.3125 0.4375 C-10.25675781 0.14746094 -9.20101562 -0.14257812 -8.11328125 -0.44140625 C-4.99304618 -1.00124767 -3.02306766 -0.84690764 0 0 Z " fill="#42ABBC" transform="translate(101,243)"/>
<path d="M0 0 C3.46464111 0.27173656 4.68165104 0.93690865 7.1875 3.25 C3.43350202 4.4539337 -0.14467412 4.34877617 -4.0625 4.3125 C-5.32578125 4.30347656 -6.5890625 4.29445313 -7.890625 4.28515625 C-8.85484375 4.27355469 -9.8190625 4.26195312 -10.8125 4.25 C-11.1425 3.59 -11.4725 2.93 -11.8125 2.25 C-9.76171875 2.02213542 -7.7109375 1.79427083 -5.66015625 1.56640625 C-3.05975601 1.12109458 -2.92536841 0.26003275 0 0 Z " fill="#6198A1" transform="translate(55.8125,261.75)"/>
<path d="M0 0 C0.99 0.33 1.98 0.66 3 1 C5.83254261 1.26515629 8.66459816 1.44387266 11.50390625 1.62109375 C14 2 14 2 16 4 C15.28714844 3.96519531 14.57429688 3.93039063 13.83984375 3.89453125 C5.73341056 3.66541268 0.37321589 4.64649865 -6 10 C-5.33333333 8.66666667 -4.66666667 7.33333333 -4 6 C-3.67 5.29875 -3.34 4.5975 -3 3.875 C-2 2 -2 2 0 0 Z " fill="#0F5669" transform="translate(312,228)"/>
<path d="M0 0 C0.33 0.66 0.66 1.32 1 2 C4.3 1.67 7.6 1.34 11 1 C11.33 2.98 11.66 4.96 12 7 C11.34 5.68 10.68 4.36 10 3 C7.69 3 5.38 3 3 3 C3 5.31 3 7.62 3 10 C3.99 10.33 4.98 10.66 6 11 C3.03 10.505 3.03 10.505 0 10 C0 6.7 0 3.4 0 0 Z " fill="#427081" transform="translate(294,27)"/>
<path d="M0 0 C0.66 0.33 1.32 0.66 2 1 C1.01 2.485 1.01 2.485 0 4 C-0.66 4 -1.32 4 -2 4 C-2 5.98 -2 7.96 -2 10 C-3.32 10.33 -4.64 10.66 -6 11 C-6 10.01 -6 9.02 -6 8 C-6.7425 8.680625 -7.485 9.36125 -8.25 10.0625 C-9.1575 10.701875 -10.065 11.34125 -11 12 C-13.171875 11.62109375 -13.171875 11.62109375 -15 11 C-14.25234375 10.54109375 -13.5046875 10.0821875 -12.734375 9.609375 C-11.74953125 8.99578125 -10.7646875 8.3821875 -9.75 7.75 C-8.77546875 7.14671875 -7.8009375 6.5434375 -6.796875 5.921875 C-4.20294755 4.13945558 -2.13622381 2.29898372 0 0 Z " fill="#2EA3B6" transform="translate(119,227)"/>
<path d="M0 0 C0.33 0 0.66 0 1 0 C1.50806447 1.72681437 2.00610467 3.45657979 2.5 5.1875 C2.7784375 6.15042969 3.056875 7.11335937 3.34375 8.10546875 C3.96677608 10.85345876 4.12302812 13.19598416 4 16 C2.68 16.33 1.36 16.66 0 17 C0 11.39 0 5.78 0 0 Z " fill="#216B7D" transform="translate(0,152)"/>
<path d="M0 0 C4.29 0.33 8.58 0.66 13 1 C12.67 1.66 12.34 2.32 12 3 C9.69 3 7.38 3 5 3 C4.67 4.32 4.34 5.64 4 7 C3.34 7 2.68 7 2 7 C2 6.34 2 5.68 2 5 C1.34 4.67 0.68 4.34 0 4 C0 2.68 0 1.36 0 0 Z " fill="#21AABD" transform="translate(320,251)"/>
<path d="M0 0 C0.33 0 0.66 0 1 0 C1.22127098 2.29045368 1.4266504 4.58244764 1.625 6.875 C1.74101562 8.15117187 1.85703125 9.42734375 1.9765625 10.7421875 C1.98429687 11.81726563 1.99203125 12.89234375 2 14 C1.34 14.66 0.68 15.32 0 16 C-0.24234375 15.44570313 -0.4846875 14.89140625 -0.734375 14.3203125 C-1.06953125 13.59585937 -1.4046875 12.87140625 -1.75 12.125 C-2.07484375 11.40570313 -2.3996875 10.68640625 -2.734375 9.9453125 C-4.21929686 7.6629326 -5.50415408 6.99624102 -8 6 C-5.625 5.875 -5.625 5.875 -3 6 C-2.34 6.66 -1.68 7.32 -1 8 C-0.67 5.36 -0.34 2.72 0 0 Z " fill="#0B5261" transform="translate(336,248)"/>
<path d="M0 0 C0.99 0 1.98 0 3 0 C4.6875 2 4.6875 2 6 4 C5.34 4 4.68 4 4 4 C4 6.31 4 8.62 4 11 C3.67 11 3.34 11 3 11 C3 8.69 3 6.38 3 4 C2.34 4 1.68 4 1 4 C0.67 6.97 0.34 9.94 0 13 C-0.33 13 -0.66 13 -1 13 C-1.02686553 11.02090602 -1.04633375 9.04171029 -1.0625 7.0625 C-1.07410156 5.96035156 -1.08570312 4.85820313 -1.09765625 3.72265625 C-1 1 -1 1 0 0 Z " fill="#184A5B" transform="translate(1,104)"/>
<path d="M0 0 C0.99 0.66 1.98 1.32 3 2 C3 3.32 3 4.64 3 6 C2.01 6 1.02 6 0 6 C-0.19916016 6.85851562 -0.19916016 6.85851562 -0.40234375 7.734375 C-0.99380317 9.97650875 -1.73288854 12.08579619 -2.5625 14.25 C-2.83191406 14.95640625 -3.10132813 15.6628125 -3.37890625 16.390625 C-3.58386719 16.92171875 -3.78882813 17.4528125 -4 18 C-4.66 17.67 -5.32 17.34 -6 17 C-4.14506608 11.28062041 -2.06896109 5.64444725 0 0 Z " fill="#2C8DA0" transform="translate(137,194)"/>
<path d="M0 0 C2.8125 -0.25 2.8125 -0.25 6 0 C8.5217837 2.38168461 8.9776284 3.75301753 9.29296875 7.234375 C9.25816406 8.39453125 9.22335937 9.5546875 9.1875 10.75 C9.16042969 11.92046875 9.13335937 13.0909375 9.10546875 14.296875 C9.07066406 15.18890625 9.03585937 16.0809375 9 17 C7.68 15.35 6.36 13.7 5 12 C5.66 11.67 6.32 11.34 7 11 C7 8.69 7 6.38 7 4 C6.01 3.67 5.02 3.34 4 3 C4 2.34 4 1.68 4 1 C2.68 0.67 1.36 0.34 0 0 Z " fill="#39B4C7" transform="translate(327,242)"/>
<path d="M0 0 C0.33 0.66 0.66 1.32 1 2 C3.02463255 2.65213292 3.02463255 2.65213292 5 3 C4.01 3.495 4.01 3.495 3 4 C5.31 4 7.62 4 10 4 C10.33 4.66 10.66 5.32 11 6 C9.906875 5.896875 8.81375 5.79375 7.6875 5.6875 C6.470625 5.790625 5.25375 5.89375 4 6 C1.99135641 8.3726974 1.99135641 8.3726974 1 11 C0.34 10.67 -0.32 10.34 -1 10 C-1 9.01 -1 8.02 -1 7 C-1.020625 5.96875 -1.04125 4.9375 -1.0625 3.875 C-1 1 -1 1 0 0 Z " fill="#29A4B8" transform="translate(323,235)"/>
<path d="M0 0 C2.46800047 1.15173355 4.04783565 2.04783565 6 4 C6.33 5.32 6.66 6.64 7 8 C3.04 7.67 -0.92 7.34 -5 7 C-5 6.67 -5 6.34 -5 6 C-2.69 6 -0.38 6 2 6 C1.34 4.02 0.68 2.04 0 0 Z " fill="#1D8E9E" transform="translate(331,258)"/>
<path d="M0 0 C2 2 2 2 2.125 4.625 C2.08375 5.40875 2.0425 6.1925 2 7 C-0.92824652 7.97608217 -2.95613276 8.08226668 -6 8 C-2.25 2.25 -2.25 2.25 0 0 Z " fill="#144C60" transform="translate(254,56)"/>
<path d="M0 0 C0.79921875 0.09925781 1.5984375 0.19851563 2.421875 0.30078125 C4.86677987 0.65065557 7.27812232 1.08094697 9.6875 1.625 C9.6875 1.955 9.6875 2.285 9.6875 2.625 C5.24272251 3.73619437 1.24303378 3.91890541 -3.3125 3.625 C-5.3125 2.125 -5.3125 2.125 -6.3125 0.625 C-3.85994998 -0.60127501 -2.69588039 -0.33528596 0 0 Z " fill="#249EB1" transform="translate(275.3125,257.375)"/>
<path d="M0 0 C1.8871875 0.0309375 1.8871875 0.0309375 3.8125 0.0625 C0.8125 2.0625 0.8125 2.0625 -1.1875 2.0625 C-1.1875 2.7225 -1.1875 3.3825 -1.1875 4.0625 C-0.1975 4.3925 0.7925 4.7225 1.8125 5.0625 C-0.4975 5.3925 -2.8075 5.7225 -5.1875 6.0625 C-6.1875 4.0625 -6.1875 4.0625 -6.1875 3.0625 C-6.5175 2.4025 -6.8475 1.7425 -7.1875 1.0625 C-4.43671116 0.14557039 -2.82801087 -0.04636083 0 0 Z " fill="#1AA5B9" transform="translate(319.1875,232.9375)"/>
<path d="M0 0 C1.02787904 0.9713211 2.03230142 1.9687098 3 3 C1.52031676 2.85950482 0.04125484 2.71245174 -1.4375 2.5625 C-2.26121094 2.48128906 -3.08492187 2.40007812 -3.93359375 2.31640625 C-6 2 -6 2 -7 1 C-8.85287502 0.92773498 -10.70833878 0.9161878 -12.5625 0.9375 C-13.57441406 0.94652344 -14.58632813 0.95554687 -15.62890625 0.96484375 C-16.41136719 0.97644531 -17.19382813 0.98804688 -18 1 C-12.68064873 -2.05169132 -5.79357631 -1.87439234 0 0 Z " fill="#538891" transform="translate(66,262)"/>
<path d="M0 0 C0.66 0.99 1.32 1.98 2 3 C0.02579865 5.52259061 -0.96745642 5.9929808 -4.1875 6.6875 C-5.5796875 6.8421875 -5.5796875 6.8421875 -7 7 C-7 5.35 -7 3.7 -7 2 C-4.69 1.34 -2.38 0.68 0 0 Z " fill="#124B5C" transform="translate(55,106)"/>
<path d="M0 0 C0.66 0 1.32 0 2 0 C2 0.99 2 1.98 2 3 C3.32 3.33 4.64 3.66 6 4 C6 4.66 6 5.32 6 6 C3.03 5.67 0.06 5.34 -3 5 C-3 4.01 -3 3.02 -3 2 C-2.01 2 -1.02 2 0 2 C0 1.34 0 0.68 0 0 Z " fill="#289FB0" transform="translate(39,255)"/>
<path d="M0 0 C0.33 0 0.66 0 1 0 C1 4 1 8 1 12 C-0.32 12 -1.64 12 -3 12 C-2.49202991 7.6822542 -1.80317221 3.96697886 0 0 Z " fill="#1B94AD" transform="translate(135,204)"/>
<path d="M0 0 C0.66 0 1.32 0 2 0 C1.979375 1.11375 1.95875 2.2275 1.9375 3.375 C1.73619282 6.83215921 1.73619282 6.83215921 3 9 C2.01 9.495 2.01 9.495 1 10 C0.34 10.99 -0.32 11.98 -1 13 C-1.22151549 11.20991533 -1.42682213 9.41781838 -1.625 7.625 C-1.74101562 6.62726563 -1.85703125 5.62953125 -1.9765625 4.6015625 C-1.98429688 3.74304688 -1.99203125 2.88453125 -2 2 C-1.34 1.34 -0.68 0.68 0 0 Z " fill="#1A768C" transform="translate(141,167)"/>
<path d="M0 0 C0.763125 0.20625 1.52625 0.4125 2.3125 0.625 C1.3225 2.605 0.3325 4.585 -0.6875 6.625 C-2.3375 4.975 -3.9875 3.325 -5.6875 1.625 C-2.6875 -0.375 -2.6875 -0.375 0 0 Z " fill="#124F61" transform="translate(116.6875,120.375)"/>
<path d="M0 0 C2.475 0.99 2.475 0.99 5 2 C5 2.66 5 3.32 5 4 C6.65 4 8.3 4 10 4 C10.33 4.66 10.66 5.32 11 6 C9.02 6.99 9.02 6.99 7 8 C5.8274869 7.04882866 4.66212985 6.08882991 3.5 5.125 C2.8503125 4.59132813 2.200625 4.05765625 1.53125 3.5078125 C1.0259375 3.01023437 0.520625 2.51265625 0 2 C0 1.34 0 0.68 0 0 Z " fill="#03121B" transform="translate(229,73)"/>
<path d="M0 0 C0 3 0 3 -2.25 5.5 C-4.43541108 7.48673735 -6.58854412 9.30304957 -9 11 C-9.66 10.67 -10.32 10.34 -11 10 C-10.45730469 9.52949219 -9.91460938 9.05898437 -9.35546875 8.57421875 C-8.64003906 7.95160156 -7.92460937 7.32898438 -7.1875 6.6875 C-6.47980469 6.07261719 -5.77210937 5.45773438 -5.04296875 4.82421875 C-3.29863261 3.26665665 -1.63221959 1.67341125 0 0 Z " fill="#020F14" transform="translate(34,120)"/>
<path d="M0 0 C1.65 0.33 3.3 0.66 5 1 C5.33 2.65 5.66 4.3 6 6 C5.34 5.34 4.68 4.68 4 4 C3.01 4 2.02 4 1 4 C0.34 4 -0.32 4 -1 4 C-0.67 2.68 -0.34 1.36 0 0 Z " fill="#2BAEBE" transform="translate(328,255)"/>
<path d="M0 0 C0.66 0.66 1.32 1.32 2 2 C1.34 2 0.68 2 0 2 C0 2.66 0 3.32 0 4 C0.66 4.33 1.32 4.66 2 5 C-1.67568464 5.91892116 -3.16380575 5.95904856 -7 5 C-4.69 3.35 -2.38 1.7 0 0 Z " fill="#1DA8BF" transform="translate(113,234)"/>
<path d="M0 0 C0 0.66 0 1.32 0 2 C-1.32 2.33 -2.64 2.66 -4 3 C-4 4.65 -4 6.3 -4 8 C-4.66 7.34 -5.32 6.68 -6 6 C-6.99 6.495 -6.99 6.495 -8 7 C-7.8125 4.625 -7.8125 4.625 -7 2 C-4.54236535 0.67665827 -2.79402354 0 0 0 Z " fill="#1FA3BC" transform="translate(124,229)"/>
<path d="M0 0 C0.66 0 1.32 0 2 0 C2.33 1.32 2.66 2.64 3 4 C4.65 4 6.3 4 8 4 C8 4.99 8 5.98 8 7 C6.02 7 4.04 7 2 7 C0.5393715 4.35261084 0 3.10551666 0 0 Z " fill="#237083" transform="translate(136,158)"/>
<path d="M0 0 C1.65 0 3.3 0 5 0 C4.67 1.65 4.34 3.3 4 5 C2.68 5 1.36 5 0 5 C0 3.35 0 1.7 0 0 Z " fill="#C6D7DE" transform="translate(298,31)"/>
<path d="M0 0 C0.99 0 1.98 0 3 0 C5.1385485 2.1385485 5.42655063 3.13275314 6 6 C5.67 5.34 5.34 4.68 5 4 C2.69 4.33 0.38 4.66 -2 5 C-1.34 4.67 -0.68 4.34 0 4 C0 2.68 0 1.36 0 0 Z " fill="#195266" transform="translate(218,17)"/>
<path d="M0 0 C0.99 0.33 1.98 0.66 3 1 C3 2.32 3 3.64 3 5 C-0.63 5 -4.26 5 -8 5 C-8 4.67 -8 4.34 -8 4 C-5.36 3.34 -2.72 2.68 0 2 C0 1.34 0 0.68 0 0 Z " fill="#1E9FB5" transform="translate(312,257)"/>
<path d="M0 0 C1.32 0.66 2.64 1.32 4 2 C4 3.65 4 5.3 4 7 C2.68 7.33 1.36 7.66 0 8 C-0.33 6.68 -0.66 5.36 -1 4 C-0.01 4 0.98 4 2 4 C2 3.34 2 2.68 2 2 C1.34 2 0.68 2 0 2 C0 1.34 0 0.68 0 0 Z " fill="#185165" transform="translate(265,13)"/>
<path d="M0 0 C2.97 0 5.94 0 9 0 C9 1.32 9 2.64 9 4 C8.01 4 7.02 4 6 4 C5.67 3.34 5.34 2.68 5 2 C2.97536745 1.34786708 2.97536745 1.34786708 1 1 C0.67 1.66 0.34 2.32 0 3 C0 2.01 0 1.02 0 0 Z " fill="#8EDCE6" transform="translate(329,266)"/>
<path d="M0 0 C4.75 0.875 4.75 0.875 7 2 C7 2.99 7 3.98 7 5 C4.03 4.505 4.03 4.505 1 4 C0.67 2.68 0.34 1.36 0 0 Z " fill="#619BA4" transform="translate(72,261)"/>
<path d="M0 0 C0.66 0.99 1.32 1.98 2 3 C-1.93670488 4.31223496 -4.12488144 3.24296256 -8 2 C-4.79191085 -0.1387261 -3.72301503 -0.47730962 0 0 Z " fill="#2EA6BA" transform="translate(83,250)"/>
<path d="M0 0 C0.99 0 1.98 0 3 0 C4.60355101 3.50776784 5.22036864 6.14354879 5 10 C2.35534962 6.8745041 1.15585285 3.91211733 0 0 Z " fill="#226070" transform="translate(129,142)"/>
<path d="M0 0 C2.31 0.33 4.62 0.66 7 1 C7 1.99 7 2.98 7 4 C5.68 4.33 4.36 4.66 3 5 C2.67 4.01 2.34 3.02 2 2 C1.34 1.34 0.68 0.68 0 0 Z " fill="#0B1C21" transform="translate(72,252)"/>
<path d="M0 0 C3.125 0.375 3.125 0.375 6 1 C6.33 1.99 6.66 2.98 7 4 C2.545 3.01 2.545 3.01 -2 2 C-1.34 1.34 -0.68 0.68 0 0 Z " fill="#F3F3F3" transform="translate(50,243)"/>
<path d="M0 0 C0.99 0 1.98 0 3 0 C2.3125 1.9375 2.3125 1.9375 1 4 C-1.625 4.75 -1.625 4.75 -4 5 C-3.67 4.01 -3.34 3.02 -3 2 C-2.01 2 -1.02 2 0 2 C0 1.34 0 0.68 0 0 Z " fill="#4E8B92" transform="translate(45,259)"/>
<path d="M0 0 C-0.99 1.485 -0.99 1.485 -2 3 C-5.125 3.1875 -5.125 3.1875 -8 3 C-8.33 2.34 -8.66 1.68 -9 1 C-5.8035914 -0.06546953 -3.34252724 -0.07427838 0 0 Z " fill="#020202" transform="translate(70,254)"/>
<path d="M0 0 C1.65 0 3.3 0 5 0 C4.67 0.99 4.34 1.98 4 3 C2.35 3.33 0.7 3.66 -1 4 C-0.67 2.68 -0.34 1.36 0 0 Z " fill="#789AA9" transform="translate(11,0)"/>
<path d="M0 0 C1.32 0.33 2.64 0.66 4 1 C2.35 2.65 0.7 4.3 -1 6 C-1.33 5.01 -1.66 4.02 -2 3 C-1.34 2.01 -0.68 1.02 0 0 Z " fill="#37687C" transform="translate(16,0)"/>
</svg>
