<?xml version="1.0" encoding="UTF-8"?>
<svg version="1.1" xmlns="http://www.w3.org/2000/svg" width="260" height="280">
<path d="M0 0 C85.8 0 171.6 0 260 0 C260 92.4 260 184.8 260 280 C174.2 280 88.4 280 0 280 C0 187.6 0 95.2 0 0 Z " fill="#F9D001" transform="translate(0,0)"/>
<path d="M0 0 C4.63242533 3.5634041 7.32589721 8.38043645 8.890625 13.96875 C8.98828125 16.74609375 8.98828125 16.74609375 8.890625 18.96875 C9.46167969 18.50984375 10.03273437 18.0509375 10.62109375 17.578125 C21.59319991 9.27490952 32.69690317 6.78462075 46.25390625 8.21875 C58.07285076 10.23405848 67.48656727 17.75472078 74.5234375 27.1484375 C76.91190729 30.76526319 78.17694388 33.65692654 78.890625 37.96875 C80.26734375 37.91654297 80.26734375 37.91654297 81.671875 37.86328125 C90.13152131 37.6766714 96.30099087 37.75600611 103.390625 42.71875 C105.49047747 45.8685287 105.60341671 48.34934315 104.890625 51.96875 C103.14261212 56.02666452 100.93587856 59.78581069 98.703125 63.59375 C98.07905762 64.6880835 97.45499023 65.78241699 96.81201172 66.90991211 C93.68289041 72.35143438 90.45319511 77.71108912 87.06640625 82.99609375 C86.46916748 83.93179199 85.87192871 84.86749023 85.2565918 85.83154297 C84.12366419 87.58836718 82.97355334 89.33426758 81.80395508 91.06689453 C78.30598416 96.4552024 77.49569025 99.58050715 77.890625 105.96875 C75.828125 109.03125 75.828125 109.03125 72.890625 110.96875 C69.23887608 110.96875 66.95449946 110.72375768 63.953125 108.59375 C62.890625 106.96875 62.890625 106.96875 62.890625 103.96875 C64.870625 103.63875 66.850625 103.30875 68.890625 102.96875 C69.385625 101.48375 69.385625 101.48375 69.890625 99.96875 C67.580625 99.96875 65.270625 99.96875 62.890625 99.96875 C64.765625 96.09375 64.765625 96.09375 65.890625 94.96875 C67.31451092 94.90137197 68.73920609 94.85072581 70.1640625 94.80859375 C74.00279102 94.40136396 74.63839167 94.23534122 77.4296875 91.28515625 C78.15749193 90.05246931 78.85067092 88.79894572 79.515625 87.53125 C79.9060498 86.84691895 80.29647461 86.16258789 80.69873047 85.45751953 C81.59237919 83.88777956 82.47315587 82.31066991 83.34375 80.72802734 C85.12079096 77.55818566 86.98604054 74.44535875 88.859375 71.33203125 C89.90140907 69.58480369 90.94100641 67.83615921 91.97918701 66.0866394 C93.00275402 64.36539403 94.03380347 62.64860536 95.06494141 60.93188477 C96.00345947 59.32204712 96.00345947 59.32204712 96.9609375 57.6796875 C97.52570801 56.72368652 98.09047852 55.76768555 98.67236328 54.78271484 C100.03830351 51.62763927 100.12632733 49.37103455 99.890625 45.96875 C94.02963046 42.1172393 87.74421362 42.26363734 80.890625 41.96875 C80.91382813 43.0309375 80.93703125 44.093125 80.9609375 45.1875 C81.19386799 59.88124216 78.73723391 70.8672914 68.515625 82.21875 C64.70553487 85.83576124 64.70553487 85.83576124 61.640625 86.3359375 C58.58354391 85.98752017 55.8002164 84.9386138 52.890625 83.96875 C52.560625 97.82875 52.230625 111.68875 51.890625 125.96875 C53.870625 125.96875 55.850625 125.96875 57.890625 125.96875 C62.21690796 128.2591351 64.90887192 130.45475688 66.890625 134.96875 C66.890625 136.61875 66.890625 138.26875 66.890625 139.96875 C58.310625 139.96875 49.730625 139.96875 40.890625 139.96875 C41.82039312 134.39014127 42.53360097 132.24132604 45.890625 127.96875 C46.550625 127.96875 47.210625 127.96875 47.890625 127.96875 C47.890625 112.78875 47.890625 97.60875 47.890625 81.96875 C44.260625 80.97875 40.630625 79.98875 36.890625 78.96875 C34.31102107 78.14304551 31.73844581 77.29483515 29.17578125 76.41796875 C27.81729887 75.96216997 26.45856787 75.50711164 25.09960938 75.05273438 C23.00809302 74.35077863 20.91855677 73.6443372 18.83276367 72.92553711 C16.78475893 72.22183936 14.73119839 71.53715958 12.67578125 70.85546875 C11.46801025 70.44514404 10.26023926 70.03481934 9.01586914 69.61206055 C5.99383264 68.71459476 5.99383264 68.71459476 3.57128906 69.76049805 C-1.78319331 73.6099073 -6.06853435 78.94001973 -10.3359375 83.921875 C-11.55553745 85.32951899 -12.80220116 86.71402117 -14.0703125 88.078125 C-14.70195312 88.76390625 -15.33359375 89.4496875 -15.984375 90.15625 C-16.55929688 90.76855469 -17.13421875 91.38085938 -17.7265625 92.01171875 C-19.35358282 94.31436615 -19.7361751 96.19845845 -20.109375 98.96875 C-17.064873 100.998418 -16.50661172 101.21731301 -13.09692383 101.19580078 C-12.29632034 101.19564972 -11.49571686 101.19549866 -10.67085266 101.19534302 C-9.38165169 101.17985916 -9.38165169 101.17985916 -8.06640625 101.1640625 C-6.74101082 101.15981766 -6.74101082 101.15981766 -5.38883972 101.15548706 C-2.56638046 101.14429097 0.25576162 101.11918751 3.078125 101.09375 C4.99153188 101.08371946 6.90494373 101.07459374 8.81835938 101.06640625 C13.50923682 101.04435351 18.19987713 101.00982762 22.890625 100.96875 C22.34758223 104.67449252 21.64824238 108.01327366 20.26171875 111.4921875 C19.94912109 112.28496094 19.63652344 113.07773438 19.31445312 113.89453125 C18.8262207 115.10689453 18.8262207 115.10689453 18.328125 116.34375 C17.99876953 117.17519531 17.66941406 118.00664062 17.33007812 118.86328125 C16.52217738 120.90059618 15.7089239 122.93559442 14.890625 124.96875 C10.6249816 124.15018304 8.75969147 122.22552815 5.890625 118.96875 C4.7234682 115.46727959 4.75705047 112.64204964 4.890625 108.96875 C5.220625 108.30875 5.550625 107.64875 5.890625 106.96875 C5.22530762 106.95416748 4.55999023 106.93958496 3.87451172 106.92456055 C0.83765386 106.84973635 -2.19814591 106.75318984 -5.234375 106.65625 C-6.28109375 106.63369141 -7.3278125 106.61113281 -8.40625 106.58789062 C-13.96511933 106.39438568 -18.36417287 106.20411509 -23.109375 102.96875 C-24.72303592 99.74142815 -24.66130617 96.46128449 -24.109375 92.96875 C-22.125 90.01953125 -22.125 90.01953125 -19.359375 87.28125 C-18.35630393 86.25957277 -17.35371811 85.23741896 -16.3515625 84.21484375 C-15.56023926 83.42762939 -15.56023926 83.42762939 -14.75292969 82.62451172 C-11.91926843 79.76980426 -9.20856513 76.80239911 -6.484375 73.84375 C-5.96391602 73.28727783 -5.44345703 72.73080566 -4.90722656 72.1574707 C-2.19450342 69.29100106 -2.19450342 69.29100106 -0.109375 65.96875 C-0.769375 65.96875 -1.429375 65.96875 -2.109375 65.96875 C-5.681254 57.06074408 -6.22666091 44.63598971 -2.61328125 35.65234375 C-0.50052389 31.17521627 2.14875887 27.0815492 4.890625 22.96875 C5.83270922 16.37416047 3.29152416 11.44850865 -0.109375 5.96875 C-2.42441085 3.12813844 -2.79791629 3.00153513 -6.671875 2.59375 C-11.67023656 2.82558495 -16.674863 3.55832397 -21.109375 5.96875 C-22.5908724 9.40330304 -22.5908724 9.40330304 -23.109375 12.96875 C-25.50195812 15.71578988 -26.91377149 15.94029858 -30.546875 16.46875 C-34.96323191 15.84891043 -36.3237768 14.34523267 -39.109375 10.96875 C-39.521875 11.484375 -39.934375 12 -40.359375 12.53125 C-40.936875 13.005625 -41.514375 13.48 -42.109375 13.96875 C-44.296875 13.65625 -44.296875 13.65625 -46.109375 12.96875 C-44.55575859 9.03051306 -42.07325339 6.90576308 -38.859375 4.21875 C-37.92609375 3.41953125 -36.9928125 2.6203125 -36.03125 1.796875 C-32.65445323 -0.3158802 -31.01886433 -0.55955937 -27.109375 -0.03125 C-26.41972656 0.32710937 -25.73007813 0.68546875 -25.01953125 1.0546875 C-23.11808472 2.20249937 -23.11808472 2.20249937 -20.91796875 1.5078125 C-20.13550781 1.20617188 -19.35304687 0.90453125 -18.546875 0.59375 C-12.51999722 -1.37076326 -5.95816903 -2.91288264 0 0 Z " fill="#050300" transform="translate(155.109375,56.03125)"/>
<path d="M0 0 C85.8 0 171.6 0 260 0 C260 6.6 260 13.2 260 20 C174.2 20 88.4 20 0 20 C0 13.4 0 6.8 0 0 Z " fill="#F8F8F5" transform="translate(0,260)"/>
<path d="M0 0 C9.55733233 2.42008591 18.85248427 5.54017387 28.1875 8.6875 C29.72711893 9.20405813 31.26683185 9.72033619 32.80664062 10.23632812 C36.5388504 11.48766376 40.26977288 12.74276703 44 14 C44.10140493 20.4777286 44.17146717 26.95525261 44.21972656 33.43359375 C44.23984419 35.6374476 44.26714172 37.84124807 44.30175781 40.04492188 C44.35026833 43.21237356 44.37296736 46.37911968 44.390625 49.546875 C44.41127014 50.53242371 44.43191528 51.51797241 44.45318604 52.53338623 C44.45546109 59.46608628 44.45546109 59.46608628 42.16308594 62.15332031 C41.44926758 62.76272461 40.73544922 63.37212891 40 64 C39.01 66.64 38.02 69.28 37 72 C44.92 72 52.84 72 61 72 C61 72.33 61 72.66 61 73 C55.275073 73.73870026 49.83649308 74.0655905 44.06640625 73.83984375 C41.77426364 73.79216818 41.77426364 73.79216818 40 76 C37.38419521 75.6730244 35.35921863 75.17960932 33 74 C33.53490276 70.68360289 34.36756817 67.46995794 35.3125 64.25 C35.64701172 63.08210938 35.64701172 63.08210938 35.98828125 61.890625 C36.32214844 61.26671875 36.65601563 60.6428125 37 60 C39.06323242 59.38183594 39.06323242 59.38183594 41 59 C41.62825257 45.65965829 42.17678395 32.35700949 42 19 C40.68 19 39.36 19 38 19 C37.505 17.02 37.505 17.02 37 15 C36.34 15 35.68 15 35 15 C35 14.34 35 13.68 35 13 C32.03 12.67 29.06 12.34 26 12 C25.505 10.515 25.505 10.515 25 9 C23.35 9.33 21.7 9.66 20 10 C20 9.01 20 8.02 20 7 C18.02 7.33 16.04 7.66 14 8 C13.505 7.01 13.505 7.01 13 6 C8.87393702 4.27281084 5.45297431 3.7879536 1 4 C1 6.31 1 8.62 1 11 C-4.57746479 13.91549296 -4.57746479 13.91549296 -7.1875 14.4375 C-9.74982931 15.23270565 -10.51374096 16.83816867 -12 19 C-12.66 19.33 -13.32 19.66 -14 20 C-14.66 19.67 -15.32 19.34 -16 19 C-16.9384979 23.45786502 -17.0280811 26.54498188 -16 31 C-13.9285673 33.0714327 -9.71638082 32.23099411 -6.875 32.25 C-6.12734375 32.270625 -5.3796875 32.29125 -4.609375 32.3125 C0.67820388 32.34934724 4.2753549 31.38112087 9 29 C9 29.66 9 30.32 9 31 C16.73232013 30.50669135 16.73232013 30.50669135 24 28 C25.37677187 31.82436632 24.72799754 35.06881331 24 39 C22.72403685 41.55192629 21.62843884 41.99500868 19 43 C18.01 42.67 17.02 42.34 16 42 C16.99 39.03 17.98 36.06 19 33 C17.00066406 33.23976563 17.00066406 33.23976563 14.9609375 33.484375 C8.52775692 34.12383814 2.10959397 34.22134528 -4.35205078 34.24023438 C-6.3926457 34.25008518 -8.43229007 34.28128235 -10.47265625 34.3125 C-11.76816406 34.31765625 -13.06367188 34.3228125 -14.3984375 34.328125 C-16.15679932 34.34214355 -16.15679932 34.34214355 -17.95068359 34.35644531 C-21.24996883 33.97078026 -22.60230503 33.23470187 -25 31 C-24.47204641 27.14261312 -23.60861239 25.08830563 -20.9609375 22.24609375 C-20.33026367 21.56015137 -19.69958984 20.87420898 -19.04980469 20.16748047 C-18.37336914 19.45221191 -17.69693359 18.73694336 -17 18 C-16.32098633 17.26797363 -15.64197266 16.53594727 -14.94238281 15.78173828 C-12.84781967 13.53113459 -10.73880216 11.29503322 -8.625 9.0625 C-7.90183594 8.29615234 -7.17867187 7.52980469 -6.43359375 6.74023438 C-1.24503968 1.24503968 -1.24503968 1.24503968 0 0 Z " fill="#D4B124" transform="translate(159,124)"/>
<path d="M0 0 C16.80395889 -0.63722878 16.80395889 -0.63722878 24.5 4.75 C26.59985247 7.8997787 26.71279171 10.38059315 26 14 C24.25198712 18.05791452 22.04525356 21.81706069 19.8125 25.625 C19.18843262 26.7193335 18.56436523 27.81366699 17.92138672 28.94116211 C14.79226541 34.38268438 11.56257011 39.74233912 8.17578125 45.02734375 C7.57854248 45.96304199 6.98130371 46.89874023 6.3659668 47.86279297 C5.23303919 49.61961718 4.08292834 51.36551758 2.91333008 53.09814453 C-0.58464084 58.4864524 -1.39493475 61.61175715 -1 68 C-3.0625 71.0625 -3.0625 71.0625 -6 73 C-9.65174892 73 -11.93612554 72.75500768 -14.9375 70.625 C-16 69 -16 69 -16 66 C-13.03 65.505 -13.03 65.505 -10 65 C-9.67 64.01 -9.34 63.02 -9 62 C-11.31 62 -13.62 62 -16 62 C-14.125 58.125 -14.125 58.125 -13 57 C-11.57611408 56.93262197 -10.15141891 56.88197581 -8.7265625 56.83984375 C-4.88783398 56.43261396 -4.25223333 56.26659122 -1.4609375 53.31640625 C-0.73313307 52.08371931 -0.03995408 50.83019572 0.625 49.5625 C1.21063721 48.53600342 1.21063721 48.53600342 1.80810547 47.48876953 C2.70175419 45.91902956 3.58253087 44.34191991 4.453125 42.75927734 C6.23016596 39.58943566 8.09541554 36.47660875 9.96875 33.36328125 C11.01078407 31.61605369 12.05038141 29.86740921 13.08856201 28.1178894 C14.11212902 26.39664403 15.14317847 24.67985536 16.17431641 22.96313477 C17.11283447 21.35329712 17.11283447 21.35329712 18.0703125 19.7109375 C18.63508301 18.75493652 19.19985352 17.79893555 19.78173828 16.81396484 C21.14767851 13.65888927 21.23570233 11.40228455 21 8 C15.13900546 4.1484893 8.85358862 4.29488734 2 4 C1.67 5.32 1.34 6.64 1 8 C1.020625 7.05125 1.04125 6.1025 1.0625 5.125 C1.22551826 2.09333717 1.22551826 2.09333717 0 0 Z " fill="#201600" transform="translate(234,94)"/>
<path d="M0 0 C3.4375 1.9375 3.4375 1.9375 6 5 C6.8022085 8.16872357 6.78700567 10.82899905 6 14 C3.81840855 16.75569447 2.12822506 18.43588747 -1 20 C-4.87214182 20.43023798 -6.52496371 20.31669086 -9.8125 18.125 C-12.81154054 15.21164633 -12.96190144 14.46480239 -13.3125 10.1875 C-13.28232024 6.86772673 -13.0060988 6.00955479 -11.125 3.0625 C-7.52217335 -0.43436116 -4.97275774 -0.49727577 0 0 Z " fill="#F8D205" transform="translate(191,68)"/>
<path d="M0 0 C0.66 0.33 1.32 0.66 2 1 C2 3.31 2 5.62 2 8 C-3.57746479 10.91549296 -3.57746479 10.91549296 -6.1875 11.4375 C-8.74982931 12.23270565 -9.51374096 13.83816867 -11 16 C-11.66 16.33 -12.32 16.66 -13 17 C-13.66 16.67 -14.32 16.34 -15 16 C-15.9384979 20.45786502 -16.0280811 23.54498188 -15 28 C-12.9285673 30.0714327 -8.71638082 29.23099411 -5.875 29.25 C-5.12734375 29.270625 -4.3796875 29.29125 -3.609375 29.3125 C1.67820388 29.34934724 5.2753549 28.38112087 10 26 C10 26.66 10 27.32 10 28 C17.73232013 27.50669135 17.73232013 27.50669135 25 25 C26.37677187 28.82436632 25.72799754 32.06881331 25 36 C23.72403685 38.55192629 22.62843884 38.99500868 20 40 C19.01 39.67 18.02 39.34 17 39 C17.99 36.03 18.98 33.06 20 30 C18.00066406 30.23976562 18.00066406 30.23976562 15.9609375 30.484375 C9.52775692 31.12383814 3.10959397 31.22134528 -3.35205078 31.24023438 C-5.3926457 31.25008518 -7.43229007 31.28128235 -9.47265625 31.3125 C-10.76816406 31.31765625 -12.06367188 31.3228125 -13.3984375 31.328125 C-15.15679932 31.34214355 -15.15679932 31.34214355 -16.95068359 31.35644531 C-20.24996883 30.97078026 -21.60230503 30.23470187 -24 28 C-23.19705242 22.04995254 -20.01332548 19.21239916 -16 15 C-15.3915625 14.32839844 -14.783125 13.65679687 -14.15625 12.96484375 C-10.77085478 9.34930105 -8.94920438 7.84843504 -4 7 C-2.75285597 4.59047977 -2.75285597 4.59047977 -2 2 C-1.34 1.34 -0.68 0.68 0 0 Z " fill="#F2C705" transform="translate(158,127)"/>
<path d="M0 0 C1.32 0.99 2.64 1.98 4 3 C3.43152344 3.556875 2.86304688 4.11375 2.27734375 4.6875 C-2.0854244 8.99928422 -6.31669963 13.35510097 -10.296875 18.0234375 C-11.48863519 19.40653533 -12.71024016 20.76421841 -13.953125 22.1015625 C-14.58734375 22.78992188 -15.2215625 23.47828125 -15.875 24.1875 C-16.44992188 24.79980469 -17.02484375 25.41210938 -17.6171875 26.04296875 C-19.24420782 28.34561615 -19.6268001 30.22970845 -20 33 C-16.41577704 35.38948197 -14.62767404 35.30233168 -10.36328125 35.4140625 C-9.06455078 35.45273438 -7.76582031 35.49140625 -6.42773438 35.53125 C-5.05599427 35.56270517 -3.68424939 35.59395251 -2.3125 35.625 C-0.92901215 35.66319197 0.45445223 35.70224442 1.83789062 35.7421875 C5.2251245 35.83660517 8.61235069 35.92218118 12 36 C12 36.33 12 36.66 12 37 C3.42 37 -5.16 37 -14 37 C-14 37.66 -14 38.32 -14 39 C-7.07 39 -0.14 39 7 39 C7 39.33 7 39.66 7 40 C3.12514365 40.08751413 -0.74945643 40.14056435 -4.625 40.1875 C-5.71941406 40.21263672 -6.81382812 40.23777344 -7.94140625 40.26367188 C-18.23642592 40.35726296 -18.23642592 40.35726296 -23 37 C-24.61366092 33.77267815 -24.55193117 30.49253449 -24 27 C-22.015625 24.05078125 -22.015625 24.05078125 -19.25 21.3125 C-18.24692893 20.29082277 -17.24434311 19.26866896 -16.2421875 18.24609375 C-15.71463867 17.72128418 -15.18708984 17.19647461 -14.64355469 16.65576172 C-11.80989343 13.80105426 -9.09919013 10.83364911 -6.375 7.875 C-5.59431152 7.04029175 -5.59431152 7.04029175 -4.79785156 6.1887207 C-2.08512842 3.32225106 -2.08512842 3.32225106 0 0 Z " fill="#190F00" transform="translate(155,122)"/>
<path d="M0 0 C2.9429968 -0.29543597 5.12240858 -0.07857581 7.49609375 1.74609375 C11.75505473 6.40269728 14.27590359 11.49195309 15.3359375 17.734375 C14.64005114 22.29629672 12.78912188 25.14141971 10.30859375 28.9765625 C8.39549454 32.02389101 7.08184986 35.07815452 5.7734375 38.421875 C5.4434375 38.421875 5.1134375 38.421875 4.7734375 38.421875 C4.7734375 36.111875 4.7734375 33.801875 4.7734375 31.421875 C5.4334375 31.421875 6.0934375 31.421875 6.7734375 31.421875 C6.6703125 30.37 6.5671875 29.318125 6.4609375 28.234375 C6.85210663 23.46211164 8.40572273 22.62120403 11.7734375 19.421875 C12.19330696 16.71023722 12.19330696 16.71023722 11.7734375 14.421875 C9.2984375 13.926875 9.2984375 13.926875 6.7734375 13.421875 C6.7734375 12.761875 6.7734375 12.101875 6.7734375 11.421875 C7.4334375 11.091875 8.0934375 10.761875 8.7734375 10.421875 C9.1034375 9.431875 9.4334375 8.441875 9.7734375 7.421875 C9.1134375 7.421875 8.4534375 7.421875 7.7734375 7.421875 C7.7734375 6.761875 7.7734375 6.101875 7.7734375 5.421875 C5.66995676 5.22683042 3.56561165 5.04109004 1.4609375 4.859375 C0.28917969 4.75496094 -0.88257813 4.65054688 -2.08984375 4.54296875 C-5.25688825 4.23610066 -5.25688825 4.23610066 -8.2265625 5.421875 C-9.5465625 5.421875 -10.8665625 5.421875 -12.2265625 5.421875 C-12.5565625 7.731875 -12.8865625 10.041875 -13.2265625 12.421875 C-14.2165625 12.421875 -15.2065625 12.421875 -16.2265625 12.421875 C-15.5665625 11.431875 -14.9065625 10.441875 -14.2265625 9.421875 C-14.0615625 8.431875 -13.8965625 7.441875 -13.7265625 6.421875 C-12.2265625 3.421875 -12.2265625 3.421875 -10.15625 2.3671875 C-6.80609623 1.29145005 -3.4508125 0.65383816 0 0 Z " fill="#D2B219" transform="translate(146.2265625,57.578125)"/>
<path d="M0 0 C2.65656032 2.15845526 2.92904589 3.58314463 3.5 6.9375 C3 10 3 10 0.9375 12.9375 C-2 15 -2 15 -5.625 15 C-10.28798587 13.61837456 -10.28798587 13.61837456 -12 11 C-12 10.01 -12 9.02 -12 8 C-10.02 7.67 -8.04 7.34 -6 7 C-5.67 6.01 -5.34 5.02 -5 4 C-7.31 4 -9.62 4 -12 4 C-11.67 3.01 -11.34 2.02 -11 1 C-7.24713011 -0.25095663 -3.92403137 -0.58042964 0 0 Z " fill="#100A01" transform="translate(230,152)"/>
<path d="M0 0 C2 3.75 2 3.75 2 6 C2.66 6 3.32 6 4 6 C2.58508201 9.18190478 0.87686407 11.4173018 -1.51953125 13.93359375 C-2.21240234 14.66513672 -2.90527344 15.39667969 -3.61914062 16.15039062 C-4.34294922 16.90513672 -5.06675781 17.65988281 -5.8125 18.4375 C-6.52470703 19.18837891 -7.23691406 19.93925781 -7.97070312 20.71289062 C-11.59708056 24.5271285 -15.25651952 28.30064699 -19 32 C-19.33 30.68 -19.66 29.36 -20 28 C-16.25 25 -16.25 25 -14 25 C-13.67 23.02 -13.34 21.04 -13 19 C-11.02 18.67 -9.04 18.34 -7 18 C-7 17.34 -7 16.68 -7 16 C-7.99 15.67 -8.98 15.34 -10 15 C-9.01 14.67 -8.02 14.34 -7 14 C-7 11.03 -7 8.06 -7 5 C-5.824375 4.87625 -5.824375 4.87625 -4.625 4.75 C-1.85250896 4.27193661 -1.85250896 4.27193661 -0.6875 1.9375 C-0.460625 1.298125 -0.23375 0.65875 0 0 Z " fill="#DFBE17" transform="translate(151,116)"/>
<path d="M0 0 C0.33 0 0.66 0 1 0 C1.33 2.64 1.66 5.28 2 8 C7.95655541 10.57072391 13.9969827 10.44470269 20.375 10.625 C22.05142578 10.68300781 22.05142578 10.68300781 23.76171875 10.7421875 C26.50765161 10.83606555 29.25358476 10.92174911 32 11 C31.67 11.99 31.34 12.98 31 14 C30.60665706 19.211794 31.02656912 22.63896805 34 27 C37.05039221 28.90206849 37.05039221 28.90206849 40 30 C40.103125 29.34 40.20625 28.68 40.3125 28 C41.19213564 24.16158991 42.56969896 20.66903309 44 17 C45.0625 18.875 45.0625 18.875 46 21 C45.67 21.66 45.34 22.32 45 23 C44.34 23 43.68 23 43 23 C43.99 25.31 44.98 27.62 46 30 C40.91409374 32.31177557 35.4467403 33.96082651 30 32 C30.020625 30.88625 30.04125 29.7725 30.0625 28.625 C30.26380718 25.16784079 30.26380718 25.16784079 29 23 C28.92966231 21.12620395 28.9156978 19.24998898 28.9375 17.375 C28.94652344 16.37210938 28.95554688 15.36921875 28.96484375 14.3359375 C28.97644531 13.56507813 28.98804688 12.79421875 29 12 C28.36497559 12.01571045 27.72995117 12.0314209 27.07568359 12.04760742 C24.1755477 12.1102859 21.27555476 12.14909417 18.375 12.1875 C17.37597656 12.21263672 16.37695312 12.23777344 15.34765625 12.26367188 C9.82724679 12.31851038 5.71945308 12.23776432 1 9 C-0.4783226 6.04335481 -0.06032783 3.25770263 0 0 Z " fill="#E1C11D" transform="translate(130,151)"/>
<path d="M0 0 C16.80395889 -0.63722878 16.80395889 -0.63722878 24.5 4.75 C26.62413806 7.93620709 26.41566258 10.25903681 26 14 C25.34 14.66 24.68 15.32 24 16 C23.67 15.34 23.34 14.68 23 14 C23.33 13.34 23.66 12.68 24 12 C23.34 12 22.68 12 22 12 C21.773125 11.21625 21.54625 10.4325 21.3125 9.625 C20.25238706 6.8637056 20.25238706 6.8637056 17.84375 5.875 C14.57683834 4.86979641 11.59692827 4.58163202 8.1875 4.375 C7.02605469 4.30023438 5.86460937 4.22546875 4.66796875 4.1484375 C3.78753906 4.09945312 2.90710938 4.05046875 2 4 C1.67 5.32 1.34 6.64 1 8 C1.020625 7.05125 1.04125 6.1025 1.0625 5.125 C1.22551826 2.09333717 1.22551826 2.09333717 0 0 Z " fill="#281E04" transform="translate(234,94)"/>
<path d="M0 0 C0.33 0 0.66 0 1 0 C1.33 13.2 1.66 26.4 2 40 C2.33 27.13 2.66 14.26 3 1 C3.33 1 3.66 1 4 1 C4 15.19 4 29.38 4 44 C5.98 44 7.96 44 10 44 C10.66 44.66 11.32 45.32 12 46 C11.32453125 45.96519531 10.6490625 45.93039063 9.953125 45.89453125 C8.61507812 45.85392578 8.61507812 45.85392578 7.25 45.8125 C6.36828125 45.77769531 5.4865625 45.74289063 4.578125 45.70703125 C1.55328417 46.05076316 0.24416398 47.00227459 -2 49 C-2.66 48.67 -3.32 48.34 -4 48 C-2.68 47.34 -1.36 46.68 0 46 C0 30.82 0 15.64 0 0 Z " fill="#3A2900" transform="translate(203,138)"/>
<path d="M0 0 C0.99 0 1.98 0 3 0 C3.28875 1.134375 3.5775 2.26875 3.875 3.4375 C4.24625 4.613125 4.6175 5.78875 5 7 C7.84535725 8.42267862 10.36218552 8.21971869 13.5390625 8.31640625 C14.84101563 8.35830078 16.14296875 8.40019531 17.484375 8.44335938 C18.86458045 8.48317299 20.24478883 8.52288522 21.625 8.5625 C23.01303415 8.60569407 24.40105528 8.64930865 25.7890625 8.69335938 C29.19260256 8.79972 32.59621778 8.90174714 36 9 C36 9.33 36 9.66 36 10 C27.42 10 18.84 10 10 10 C10 10.66 10 11.32 10 12 C16.93 12 23.86 12 31 12 C31 12.33 31 12.66 31 13 C27.12514365 13.08751413 23.25054357 13.14056435 19.375 13.1875 C18.28058594 13.21263672 17.18617188 13.23777344 16.05859375 13.26367188 C5.76357408 13.35726296 5.76357408 13.35726296 1 10 C-0.60725635 6.78548731 -0.05748185 3.56387464 0 0 Z " fill="#2F2300" transform="translate(131,149)"/>
<path d="M0 0 C10.56092995 -1.03126622 10.56092995 -1.03126622 14.9375 2.4375 C18.45988164 6.01929531 20.66459647 10.16924496 22 15 C21.8125 17.75 21.8125 17.75 21 20 C20.814375 20.928125 20.62875 21.85625 20.4375 22.8125 C20.293125 23.534375 20.14875 24.25625 20 25 C19.34 24.67 18.68 24.34 18 24 C18.103125 23.05125 18.20625 22.1025 18.3125 21.125 C18.3125 14.58303338 14.50615336 8.99463553 10.6875 3.9375 C7.04024911 1.30808657 4.45570359 1.2265612 0 1 C0 0.67 0 0.34 0 0 Z " fill="#1E1300" transform="translate(142,55)"/>
<path d="M0 0 C0.99 0 1.98 0 3 0 C2.38379922 4.31340543 1.40620186 7.78139441 0 12 C7.92 12 15.84 12 24 12 C24 12.33 24 12.66 24 13 C18.275073 13.73870026 12.83649308 14.0655905 7.06640625 13.83984375 C4.77426364 13.79216818 4.77426364 13.79216818 3 16 C0.38419521 15.6730244 -1.64078137 15.17960932 -4 14 C-3.21824485 9.15311808 -1.60155722 4.6233633 0 0 Z " fill="#D7B313" transform="translate(196,184)"/>
<path d="M0 0 C0.66 0 1.32 0 2 0 C2.33 1.32 2.66 2.64 3 4 C3.66 3.67 4.32 3.34 5 3 C5 4.32 5 5.64 5 7 C5.99 7.66 6.98 8.32 8 9 C7.195625 8.814375 6.39125 8.62875 5.5625 8.4375 C4.716875 8.293125 3.87125 8.14875 3 8 C2.67 8.33 2.34 8.66 2 9 C0.00045254 9.04254356 -2.00041636 9.04080783 -4 9 C-4.66 9 -5.32 9 -6 9 C-7.32 9 -8.64 9 -10 9 C-10.625 7.125 -10.625 7.125 -11 5 C-10.34 4.34 -9.68 3.68 -9 3 C-7.328451 3.30791692 -5.66194453 3.64386903 -4 4 C-1.76832815 3.63143136 -1.76832815 3.63143136 0 3 C0 2.01 0 1.02 0 0 Z " fill="#989898" transform="translate(112,266)"/>
<path d="M0 0 C0.99 0.33 1.98 0.66 3 1 C3 5.08416571 2.84710374 9.30579253 1 13 C-0.875 14.1875 -0.875 14.1875 -3 15 C-3.99 14.67 -4.98 14.34 -6 14 C-5.01 11.03 -4.02 8.06 -3 5 C-5.64 5 -8.28 5 -11 5 C-11 4.67 -11 4.34 -11 4 C-9.1128125 3.566875 -9.1128125 3.566875 -7.1875 3.125 C-4.1460601 2.42696461 -2.69330122 1.79553415 0 0 Z " fill="#CCAB0F" transform="translate(181,152)"/>
<path d="M0 0 C-0.99 0.33 -1.98 0.66 -3 1 C-2.938125 2.423125 -2.938125 2.423125 -2.875 3.875 C-3 7 -3 7 -5 9 C-7.61580479 8.6730244 -9.64078137 8.17960932 -12 7 C-11.67 9.97 -11.34 12.94 -11 16 C-13 14 -13 14 -13.375 10.1875 C-13.28397523 6.01553142 -12.03050306 3.94137062 -9 1 C-6.04335481 -0.4783226 -3.25770263 -0.06032783 0 0 Z " fill="#D3B92C" transform="translate(191,68)"/>
<path d="M0 0 C0.33 0.99 0.66 1.98 1 3 C2.98 3 4.96 3 7 3 C7 4.65 7 6.3 7 8 C7.66 8 8.32 8 9 8 C9 6.35 9 4.7 9 3 C9.99 3 10.98 3 12 3 C12.33 2.34 12.66 1.68 13 1 C13 1.66 13 2.32 13 3 C13.99 3 14.98 3 16 3 C16.33 2.34 16.66 1.68 17 1 C17 1.66 17 2.32 17 3 C17.66 3.33 18.32 3.66 19 4 C18.34 4 17.68 4 17 4 C17 5.32 17 6.64 17 8 C17.66 8.33 18.32 8.66 19 9 C18.01 9 17.02 9 16 9 C16 7.35 16 5.7 16 4 C15.01 4 14.02 4 13 4 C13 5.32 13 6.64 13 8 C13.66 8.33 14.32 8.66 15 9 C11.04 9 7.08 9 3 9 C3 7.35 3 5.7 3 4 C2.34 4 1.68 4 1 4 C1 5.65 1 7.3 1 9 C0.67 9 0.34 9 0 9 C0 6.03 0 3.06 0 0 Z " fill="#737373" transform="translate(63,266)"/>
<path d="M0 0 C4.75 0.75 4.75 0.75 7 3 C8.2685598 9.34279898 4.34986557 13.95526197 1 19 C0.67 18.34 0.34 17.68 0 17 C0.33 16.34 0.66 15.68 1 15 C1.24787017 10.85496339 1.24787017 10.85496339 0 7 C0.33 6.34 0.66 5.68 1 5 C1.66 5 2.32 5 3 5 C3 4.34 3 3.68 3 3 C2.01 2.67 1.02 2.34 0 2 C0 1.34 0 0.68 0 0 Z " fill="#EFD019" transform="translate(249,99)"/>
<path d="M0 0 C0.66 0.33 1.32 0.66 2 1 C2 3.31 2 5.62 2 8 C-3.57746479 10.91549296 -3.57746479 10.91549296 -6.1875 11.4375 C-8.72766595 12.22582736 -9.44971612 13.91048694 -11 16 C-11.99 16 -12.98 16 -14 16 C-12.49951924 13.19697424 -10.96798874 10.50276829 -9 8 C-6.3125 7.3125 -6.3125 7.3125 -4 7 C-2.75285597 4.59047977 -2.75285597 4.59047977 -2 2 C-1.34 1.34 -0.68 0.68 0 0 Z " fill="#E8BF06" transform="translate(158,127)"/>
<path d="M0 0 C-0.33 1.32 -0.66 2.64 -1 4 C-1.99 4 -2.98 4 -4 4 C-4.33 4.99 -4.66 5.98 -5 7 C-4.01 7.66 -3.02 8.32 -2 9 C-2.33 10.32 -2.66 11.64 -3 13 C-3.99 12.01 -4.98 11.02 -6 10 C-6.4125 10.515625 -6.825 11.03125 -7.25 11.5625 C-7.8275 12.036875 -8.405 12.51125 -9 13 C-11.1875 12.6875 -11.1875 12.6875 -13 12 C-11.50198648 8.38522825 -9.42462583 6.31379537 -6.5 3.75 C-5.7059375 3.04359375 -4.911875 2.3371875 -4.09375 1.609375 C-2 0 -2 0 0 0 Z " fill="#201300" transform="translate(122,57)"/>
<path d="M0 0 C1.75140143 0.45294865 3.50107344 0.91258748 5.25 1.375 C6.22453125 1.63023438 7.1990625 1.88546875 8.203125 2.1484375 C10.69573974 2.9073621 12.8055193 3.60076689 15 5 C15.33 5.99 15.66 6.98 16 8 C15.34 8 14.68 8 14 8 C13.67 7.34 13.34 6.68 13 6 C8.18452055 3.88588707 4.16347007 3.40747065 -1 4 C-3.19078127 6.23204449 -3.19078127 6.23204449 -4 9 C-3.67 9.66 -3.34 10.32 -3 11 C-5.31 11 -7.62 11 -10 11 C-9.08552154 9.91481889 -8.16829593 8.83195262 -7.25 7.75 C-6.73953125 7.14671875 -6.2290625 6.5434375 -5.703125 5.921875 C-3.87871375 3.8631357 -1.96169678 1.92758032 0 0 Z " fill="#D6B620" transform="translate(159,124)"/>
<path d="M0 0 C0 0.66 0 1.32 0 2 C2.31 2 4.62 2 7 2 C6.67 2.66 6.34 3.32 6 4 C4.96875 3.896875 3.9375 3.79375 2.875 3.6875 C-2.15723716 4.09332558 -3.46344709 5.54970448 -7 9 C-7 8.34 -7 7.68 -7 7 C-8.32 7 -9.64 7 -11 7 C-11 6.34 -11 5.68 -11 5 C-11.66 4.67 -12.32 4.34 -13 4 C-11.2097939 3.32942113 -9.41778511 2.6636531 -7.625 2 C-6.62726563 1.62875 -5.62953125 1.2575 -4.6015625 0.875 C-2 0 -2 0 0 0 Z " fill="#1B1400" transform="translate(185,65)"/>
<path d="M0 0 C0.33 0.66 0.66 1.32 1 2 C3.64 2 6.28 2 9 2 C9 2.33 9 2.66 9 3 C1.26269471 5.53257158 -6.45596388 5.22512539 -14.5 5.125 C-15.90884781 5.11495069 -17.31770255 5.10582829 -18.7265625 5.09765625 C-22.1512205 5.07419969 -25.57551939 5.04137384 -29 5 C-29 4.67 -29 4.34 -29 4 C-28.00202393 3.97812622 -28.00202393 3.97812622 -26.98388672 3.95581055 C-23.94702886 3.88098635 -20.91122909 3.78443984 -17.875 3.6875 C-16.30492187 3.65366211 -16.30492187 3.65366211 -14.703125 3.61914062 C-9.02191292 3.42137691 -4.82232199 3.11198288 0 0 Z " fill="#DFC22B" transform="translate(167,153)"/>
<path d="M0 0 C2 3.75 2 3.75 2 6 C1.34 6 0.68 6 0 6 C0.061875 6.763125 0.12375 7.52625 0.1875 8.3125 C0 11 0 11 -1.3125 12.75 C-3 14 -3 14 -6 15 C-7.66710346 16.49985609 -7.66710346 16.49985609 -9 18 C-9.66 17.67 -10.32 17.34 -11 17 C-10.113125 16.05125 -9.22625 15.1025 -8.3125 14.125 C-4.62343678 9.85760383 -2.32216105 5.10669929 0 0 Z " fill="#EACB14" transform="translate(234,120)"/>
<path d="M0 0 C2.97 0 5.94 0 9 0 C10 4 10 4 9 6 C6.03 6 3.06 6 0 6 C0 4.02 0 2.04 0 0 Z " fill="#919191" transform="translate(122,269)"/>
<path d="M0 0 C0.66 0.33 1.32 0.66 2 1 C2 1.66 2 2.32 2 3 C2.99 2.67 3.98 2.34 5 2 C5.33 1.34 5.66 0.68 6 0 C6.66 0 7.32 0 8 0 C8.625 2.875 8.625 2.875 9 6 C8.34 6.66 7.68 7.32 7 8 C7 7.34 7 6.68 7 6 C6.2575 6.350625 5.515 6.70125 4.75 7.0625 C1.8677274 8.04509293 0.78823655 8.0326802 -2 7 C-1.125 1.125 -1.125 1.125 0 0 Z " fill="#949494" transform="translate(183,267)"/>
<path d="M0 0 C0.66 0.99 1.32 1.98 2 3 C1.26394531 2.97679687 0.52789062 2.95359375 -0.23046875 2.9296875 C-1.69419922 2.90261719 -1.69419922 2.90261719 -3.1875 2.875 C-4.63189453 2.84019531 -4.63189453 2.84019531 -6.10546875 2.8046875 C-9.1484526 3.01001704 -11.20626778 3.83861214 -14 5 C-15.32 5 -16.64 5 -18 5 C-18.33 7.31 -18.66 9.62 -19 12 C-19.99 12 -20.98 12 -22 12 C-21.34 11.01 -20.68 10.02 -20 9 C-19.835 8.01 -19.67 7.02 -19.5 6 C-18 3 -18 3 -15.9296875 1.9453125 C-10.57375714 0.22551835 -5.59943629 -0.5999396 0 0 Z " fill="#C7A922" transform="translate(152,58)"/>
<path d="M0 0 C0.66 0.33 1.32 0.66 2 1 C2 4.25 2 4.25 1 8 C-0.98958625 9.41071956 -2.92208656 10.28175202 -5.1875 11.17578125 C-7.19084043 11.85745416 -7.19084043 11.85745416 -8 14 C-10.63556905 12.68221547 -12.72269553 10.85780102 -15 9 C-14.67 8.34 -14.34 7.68 -14 7 C-13.67 7.33 -13.34 7.66 -13 8 C-9.1638778 8.14475933 -5.67692213 8.17661508 -2 7 C-1.34 4.69 -0.68 2.38 0 0 Z " fill="#DDBC10" transform="translate(134,63)"/>
<path d="M0 0 C5.75 0.875 5.75 0.875 8 2 C8 8.6 8 15.2 8 22 C7.67 22 7.34 22 7 22 C7 16.72 7 11.44 7 6 C5.68 6 4.36 6 3 6 C2.67 4.68 2.34 3.36 2 2 C1.34 2 0.68 2 0 2 C0 1.34 0 0.68 0 0 Z " fill="#CDA808" transform="translate(194,137)"/>
<path d="M0 0 C2 3.75 2 3.75 2 6 C2.66 6 3.32 6 4 6 C2.60667426 9.36720387 1.0210714 10.9859524 -2 13 C-2.185625 12.071875 -2.185625 12.071875 -2.375 11.125 C-2.87197356 8.80879168 -2.87197356 8.80879168 -5 7 C-4.34 7 -3.68 7 -3 7 C-2.690625 6.21625 -2.38125 5.4325 -2.0625 4.625 C-1 2 -1 2 0 0 Z " fill="#D8B713" transform="translate(151,116)"/>
<path d="M0 0 C3.10843835 -0.34538204 4.62515045 -0.23301458 7.3125 1.4375 C9.73082335 5.10976878 9.71310584 8.70478108 9 13 C8.34 13.66 7.68 14.32 7 15 C7 11.7 7 8.4 7 5 C5.02 5 3.04 5 1 5 C1 5.66 1 6.32 1 7 C0.34 6.67 -0.32 6.34 -1 6 C-0.67 4.02 -0.34 2.04 0 0 Z " fill="#E7CB21" transform="translate(188,69)"/>
<path d="M0 0 C7.21930632 1.44386126 14.05110733 3.57788174 21 6 C21 6.66 21 7.32 21 8 C17.7 7.67 14.4 7.34 11 7 C10.67 6.01 10.34 5.02 10 4 C8.35 4.33 6.7 4.66 5 5 C5 4.01 5 3.02 5 2 C4.01 2.33 3.02 2.66 2 3 C1.34 2.67 0.68 2.34 0 2 C0 1.34 0 0.68 0 0 Z " fill="#CEAD1D" transform="translate(174,129)"/>
<path d="M0 0 C-0.33 1.32 -0.66 2.64 -1 4 C-0.01 4.33 0.98 4.66 2 5 C0.375 10.75 0.375 10.75 -3 13 C-3.77403558 8.93631321 -4.0984702 5.13574827 -4 1 C-2 0 -2 0 0 0 Z " fill="#E9C208" transform="translate(148,120)"/>
<path d="M0 0 C1.93742341 -0.02703381 3.87495479 -0.04641125 5.8125 -0.0625 C6.89144531 -0.07410156 7.97039062 -0.08570312 9.08203125 -0.09765625 C12 0 12 0 15 1 C15 1.66 15 2.32 15 3 C10.38 3 5.76 3 1 3 C0.67 4.32 0.34 5.64 0 7 C0 4.69 0 2.38 0 0 Z " fill="#1C1301" transform="translate(235,95)"/>
<path d="M0 0 C0.33 0.99 0.66 1.98 1 3 C1.99 3.66 2.98 4.32 4 5 C4 5.99 4 6.98 4 8 C3.17242187 7.34515625 2.34484375 6.6903125 1.4921875 6.015625 C-2.16170935 3.57969377 -5.59100163 3.53413962 -9.875 3.75 C-10.56335938 3.76804688 -11.25171875 3.78609375 -11.9609375 3.8046875 C-13.6412381 3.85136252 -15.32081163 3.92309061 -17 4 C-13.74825667 1.83217112 -11.75532816 1.45950346 -7.9375 0.875 C-6.87402344 0.70742188 -5.81054688 0.53984375 -4.71484375 0.3671875 C-2 0 -2 0 0 0 Z " fill="#E2C522" transform="translate(155,52)"/>
<path d="M0 0 C0.99 0.33 1.98 0.66 3 1 C2.67 1.99 2.34 2.98 2 4 C4.96175123 3.38722388 6.38058783 2.74627478 9 1 C9.66 2.32 10.32 3.64 11 5 C9.33524314 5.34274406 7.66804677 5.67364302 6 6 C4.96875 6.2475 3.9375 6.495 2.875 6.75 C0 7 0 7 -1.875 5.5625 C-2.431875 4.7890625 -2.431875 4.7890625 -3 4 C-2.01 2.68 -1.02 1.36 0 0 Z " fill="#E0C317" transform="translate(108,65)"/>
<path d="M0 0 C0.99 0 1.98 0 3 0 C3 6.6 3 13.2 3 20 C0.64641749 17.64641749 0.72128096 17.07031606 0.5859375 13.8671875 C0.54726562 13.06152344 0.50859375 12.25585938 0.46875 11.42578125 C0.4378125 10.58402344 0.406875 9.74226563 0.375 8.875 C0.33632812 8.02550781 0.29765625 7.17601563 0.2578125 6.30078125 C0.16343506 4.20088316 0.08062414 2.10047109 0 0 Z " fill="#C6A91F" transform="translate(148,96)"/>
<path d="M0 0 C4.10839064 1.45002023 7.50344613 3.3979134 11 6 C11 6.66 11 7.32 11 8 C11.66 8 12.32 8 13 8 C14.0625 9.8125 14.0625 9.8125 15 12 C14.67 12.99 14.34 13.98 14 15 C13.24074219 14.16855469 12.48148438 13.33710937 11.69921875 12.48046875 C10.69534886 11.38277925 9.6914406 10.28512484 8.6875 9.1875 C8.18798828 8.64029297 7.68847656 8.09308594 7.17382812 7.52929688 C4.83056872 4.96878163 2.48855146 2.42060466 0 0 Z " fill="#D5C01E" transform="translate(216,70)"/>
<path d="M0 0 C3.125 0.375 3.125 0.375 6 1 C6 2.32 6 3.64 6 5 C6.66 5.33 7.32 5.66 8 6 C7.443125 5.814375 6.88625 5.62875 6.3125 5.4375 C3.600867 4.92448835 1.65628961 5.3359276 -1 6 C-1.625 4.125 -1.625 4.125 -2 2 C-1.34 1.34 -0.68 0.68 0 0 Z " fill="#868787" transform="translate(103,269)"/>
<path d="M0 0 C1.98 0 3.96 0 6 0 C4.125 5.75 4.125 5.75 3 8 C2.34 8 1.68 8 1 8 C-1 5 -1 5 -0.625 2.3125 C-0.41875 1.549375 -0.2125 0.78625 0 0 Z " fill="#B5B5B4" transform="translate(192,267)"/>
<path d="M0 0 C2.97 0 5.94 0 9 0 C8.01 0.495 8.01 0.495 7 1 C7 2.65 7 4.3 7 6 C6.34 6 5.68 6 5 6 C5 5.01 5 4.02 5 3 C3.68 3 2.36 3 1 3 C1 3.66 1 4.32 1 5 C1.99 4.67 2.98 4.34 4 4 C4 4.66 4 5.32 4 6 C2.68 6 1.36 6 0 6 C-1.125 2.25 -1.125 2.25 0 0 Z " fill="#8F9090" transform="translate(83,269)"/>
<path d="M0 0 C1.9375 0.3125 1.9375 0.3125 4 1 C4.33 1.99 4.66 2.98 5 4 C5.99 4.33 6.98 4.66 8 5 C7.67 3.35 7.34 1.7 7 0 C7.66 0 8.32 0 9 0 C9.625 2.875 9.625 2.875 10 6 C9.34 6.66 8.68 7.32 8 8 C8 7.34 8 6.68 8 6 C7.2575 6.33 6.515 6.66 5.75 7 C3 8 3 8 -1 8 C-0.67 7.34 -0.34 6.68 0 6 C0.66 6.33 1.32 6.66 2 7 C1.814375 6.38125 1.62875 5.7625 1.4375 5.125 C1 3 1 3 2 1 C1.34 0.67 0.68 0.34 0 0 Z " fill="#535353" transform="translate(152,267)"/>
<path d="M0 0 C4 2 4 2 5 3 C6.66617115 3.04063832 8.33388095 3.042721 10 3 C5.375 7.875 5.375 7.875 2 9 C1.34 6.03 0.68 3.06 0 0 Z " fill="#E0C51E" transform="translate(162,66)"/>
<path d="M0 0 C1.670625 0.061875 1.670625 0.061875 3.375 0.125 C3.375 0.455 3.375 0.785 3.375 1.125 C1.395 1.125 -0.585 1.125 -2.625 1.125 C-0.75933512 4.75293998 -0.75933512 4.75293998 2.375 7.125 C2.375 7.785 2.375 8.445 2.375 9.125 C0.395 8.465 -1.585 7.805 -3.625 7.125 C-3.955 7.785 -4.285 8.445 -4.625 9.125 C-5.25 5.75 -5.25 5.75 -5.625 2.125 C-3.625 0.125 -3.625 0.125 0 0 Z " fill="#D6BB12" transform="translate(220.625,158.875)"/>
<path d="M0 0 C2.20805524 -0.0544452 4.41650554 -0.09299283 6.625 -0.125 C7.85476562 -0.14820312 9.08453125 -0.17140625 10.3515625 -0.1953125 C13.94316041 -0.0030428 16.66661175 0.69741444 20 2 C20 3.32 20 4.64 20 6 C17.525 5.505 17.525 5.505 15 5 C15.33 4.01 15.66 3.02 16 2 C10.72 1.67 5.44 1.34 0 1 C0 0.67 0 0.34 0 0 Z " fill="#382E03" transform="translate(234,94)"/>
<path d="M0 0 C1.65 0.33 3.3 0.66 5 1 C4.67 2.65 4.34 4.3 4 6 C2.35 5.67 0.7 5.34 -1 5 C-0.67 3.35 -0.34 1.7 0 0 Z " fill="#140D00" transform="translate(183,70)"/>
<path d="M0 0 C1.13732426 3.40401948 0.83989957 5.77456664 0.0625 9.25 C-0.13214844 10.14203125 -0.32679688 11.0340625 -0.52734375 11.953125 C-0.68332031 12.62859375 -0.83929688 13.3040625 -1 14 C-1.66 14 -2.32 14 -3 14 C-4.44608879 7.01057082 -4.44608879 7.01057082 -3.17578125 4.1328125 C-2.0625 2.5 -2.0625 2.5 0 0 Z " fill="#E0C622" transform="translate(236,148)"/>
<path d="M0 0 C2.76276177 0.52268466 5.3260876 1.10869587 8 2 C10.22085338 5.97415868 10.17563129 9.5214021 10 14 C9.67 14 9.34 14 9 14 C8.77957031 13.09507812 8.77957031 13.09507812 8.5546875 12.171875 C6.99496849 6.44650107 6.99496849 6.44650107 2.8125 2.5 C1.4203125 1.7575 1.4203125 1.7575 0 1 C0 0.67 0 0.34 0 0 Z " fill="#E9CF23" transform="translate(213,182)"/>
<path d="M0 0 C0.66 0 1.32 0 2 0 C3.1845131 3.55353929 3.26641894 6.27013478 3 10 C1.5 11.9375 1.5 11.9375 0 13 C-1.23800991 9.28597026 -0.6155489 6.83008202 0 3 C0 2.01 0 1.02 0 0 Z " fill="#C5A61D" transform="translate(158,69)"/>
<path d="M0 0 C0.99 0.33 1.98 0.66 3 1 C2.5504955 2.31554985 2.09010284 3.62738358 1.625 4.9375 C1.36976563 5.66839844 1.11453125 6.39929688 0.8515625 7.15234375 C0 9 0 9 -2 10 C-1.67 7.69 -1.34 5.38 -1 3 C-1.66 2.67 -2.32 2.34 -3 2 C-2.01 1.34 -1.02 0.68 0 0 Z " fill="#DFB703" transform="translate(181,152)"/>
<path d="M0 0 C1.32 0.99 2.64 1.98 4 3 C1 5 1 5 -0.9375 5.875 C-3.41512632 7.22643254 -5.08334485 8.94644091 -7 11 C-7.66 10.67 -8.32 10.34 -9 10 C-8.43410156 9.44570312 -7.86820313 8.89140625 -7.28515625 8.3203125 C-6.55167969 7.59585938 -5.81820312 6.87140625 -5.0625 6.125 C-4.33160156 5.40570313 -3.60070312 4.68640625 -2.84765625 3.9453125 C-0.94332001 2.12972808 -0.94332001 2.12972808 0 0 Z " fill="#271900" transform="translate(155,122)"/>
<path d="M0 0 C2.0625 0.4375 2.0625 0.4375 4 1 C3.6875 3.375 3.6875 3.375 3 6 C2.01 6.66 1.02 7.32 0 8 C-0.38063221 5.6739143 -0.71269945 3.33944736 -1 1 C-0.67 0.67 -0.34 0.34 0 0 Z " fill="#828282" transform="translate(170,267)"/>
<path d="M0 0 C0 0.99 0 1.98 0 3 C-1 4 -2 5 -3 6 C-4.19027984 8.59915538 -4.19027984 8.59915538 -5 11 C-6.32 10.34 -7.64 9.68 -9 9 C-6.03 6.03 -3.06 3.06 0 0 Z " fill="#DEBF22" transform="translate(147,137)"/>
<path d="M0 0 C2.475 0.495 2.475 0.495 5 1 C4.67 2.65 4.34 4.3 4 6 C2.68 6 1.36 6 0 6 C0 4.02 0 2.04 0 0 Z " fill="#A9A9A9" transform="translate(122,269)"/>
<path d="M0 0 C0.33 0.66 0.66 1.32 1 2 C1.99 2 2.98 2 4 2 C4.33 1.34 4.66 0.68 5 0 C5 0.66 5 1.32 5 2 C5.66 2.33 6.32 2.66 7 3 C6.34 3 5.68 3 5 3 C5 4.32 5 5.64 5 7 C5.66 7.33 6.32 7.66 7 8 C6.01 8 5.02 8 4 8 C4 6.35 4 4.7 4 3 C3.01 3 2.02 3 1 3 C1 4.32 1 5.64 1 7 C1.66 7.33 2.32 7.66 3 8 C2.01 8 1.02 8 0 8 C-1.125 2.25 -1.125 2.25 0 0 Z " fill="#4B4C4C" transform="translate(75,267)"/>
<path d="M0 0 C-0.99 0.33 -1.98 0.66 -3 1 C-3 1.99 -3 2.98 -3 4 C-4.98 4.33 -6.96 4.66 -9 5 C-9.33 3.68 -9.66 2.36 -10 1 C-3.71428571 -1.42857143 -3.71428571 -1.42857143 0 0 Z " fill="#2B2301" transform="translate(142,57)"/>
<path d="M0 0 C0.66 0.33 1.32 0.66 2 1 C1.67 1.66 1.34 2.32 1 3 C3.31 3 5.62 3 8 3 C8 3.99 8 4.98 8 6 C5.03 5.67 2.06 5.34 -1 5 C-0.67 3.35 -0.34 1.7 0 0 Z " fill="#ECCF22" transform="translate(217,153)"/>
<path d="M0 0 C0.66 0.33 1.32 0.66 2 1 C1.0625 2.9375 1.0625 2.9375 -1 5 C-3.32705633 5.49439292 -5.56759373 5.68779274 -7.94140625 5.82421875 C-10.06333296 5.87771033 -10.06333296 5.87771033 -12 7 C-11.34 5.35 -10.68 3.7 -10 2 C-7.36 2.33 -4.72 2.66 -2 3 C-1.34 2.01 -0.68 1.02 0 0 Z " fill="#E3C824" transform="translate(231,146)"/>
<path d="M0 0 C0.97918775 3.07556958 1.1498998 3.68592423 -0.3125 6.75 C-0.869375 7.4925 -1.42625 8.235 -2 9 C-2.66 9 -3.32 9 -4 9 C-4.33 9.99 -4.66 10.98 -5 12 C-5.33 11.34 -5.66 10.68 -6 10 C-4.78515625 7.6171875 -4.78515625 7.6171875 -3.0625 4.875 C-2.21365234 3.50988281 -2.21365234 3.50988281 -1.34765625 2.1171875 C-0.90292969 1.41851562 -0.45820313 0.71984375 0 0 Z " fill="#E7CD1E" transform="translate(252,121)"/>
<path d="M0 0 C3.96 0 7.92 0 12 0 C7.859724 3.105207 6.90248464 3.63945452 2 3 C1.34 2.01 0.68 1.02 0 0 Z " fill="#D8BF20" transform="translate(182,85)"/>
<path d="M0 0 C1.0625 1.875 1.0625 1.875 2 4 C1.67 4.66 1.34 5.32 1 6 C0.34 6 -0.32 6 -1 6 C-0.67 7.32 -0.34 8.64 0 10 C-1.98 10.99 -1.98 10.99 -4 12 C-2.66666667 8 -1.33333333 4 0 0 Z " fill="#D1B41F" transform="translate(174,168)"/>
<path d="M0 0 C2.125 0.9375 2.125 0.9375 4 2 C2.68 4.31 1.36 6.62 0 9 C-0.33 9 -0.66 9 -1 9 C-1.33 6.36 -1.66 3.72 -2 1 C-1.34 0.67 -0.68 0.34 0 0 Z " fill="#E7CB15" transform="translate(237,132)"/>
<path d="M0 0 C0.33 0 0.66 0 1 0 C1 2.31 1 4.62 1 7 C0.01 7.33 -0.98 7.66 -2 8 C-3.69882448 10.49759982 -3.69882448 10.49759982 -5 13 C-5.33 12.34 -5.66 11.68 -6 11 C-4.78515625 8.3984375 -4.78515625 8.3984375 -3.0625 5.375 C-2.21365234 3.87066406 -2.21365234 3.87066406 -1.34765625 2.3359375 C-0.90292969 1.56507812 -0.45820313 0.79421875 0 0 Z " fill="#E6CB2B" transform="translate(259,108)"/>
<path d="M0 0 C0.33 0 0.66 0 1 0 C1 1.98 1 3.96 1 6 C0.34 6 -0.32 6 -1 6 C-0.34 7.32 0.32 8.64 1 10 C-0.32 9.34 -1.64 8.68 -3 8 C-2.45276317 4.62537285 -1.9451 2.91765 0 0 Z " fill="#D6BD23" transform="translate(137,147)"/>
<path d="M0 0 C1.45823212 -0.0270043 2.91660675 -0.04639787 4.375 -0.0625 C5.18710938 -0.07410156 5.99921875 -0.08570313 6.8359375 -0.09765625 C9 0 9 0 11 1 C11 1.66 11 2.32 11 3 C7.37 2.67 3.74 2.34 0 2 C0 1.34 0 0.68 0 0 Z " fill="#E0B508" transform="translate(143,60)"/>
<path d="M0 0 C0.33 0.66 0.66 1.32 1 2 C3.64 2 6.28 2 9 2 C9 2.33 9 2.66 9 3 C4.05 3.33 -0.9 3.66 -6 4 C-2 1 -2 1 0 0 Z " fill="#E5BF10" transform="translate(167,153)"/>
<path d="M0 0 C0.66 0 1.32 0 2 0 C2.625 2.875 2.625 2.875 3 6 C2.34 6.66 1.68 7.32 1 8 C1 7.34 1 6.68 1 6 C-0.1446875 6.5259375 -0.1446875 6.5259375 -1.3125 7.0625 C-4 8 -4 8 -7 7 C-3.77208445 4.8480563 -2.71599191 4.79913557 1 5 C0.67 3.35 0.34 1.7 0 0 Z " fill="#414140" transform="translate(189,267)"/>
<path d="M0 0 C4.74361909 0.24966416 5.36290301 1.36290301 9 5 C5.37 4.01 1.74 3.02 -2 2 C-1.34 1.34 -0.68 0.68 0 0 Z " fill="#342304" transform="translate(194,133)"/>
<path d="M0 0 C2 4 2 4 2 6 C1.01 6 0.02 6 -1 6 C-1.33 6.99 -1.66 7.98 -2 9 C-2.66 8.67 -3.32 8.34 -4 8 C-2.68 5.36 -1.36 2.72 0 0 Z " fill="#E4C71F" transform="translate(234,120)"/>
<path d="M0 0 C1.32 0 2.64 0 4 0 C3.67 1.32 3.34 2.64 3 4 C1.68 4 0.36 4 -1 4 C-0.67 2.68 -0.34 1.36 0 0 Z " fill="#E7E8E8" transform="translate(162,268)"/>
<path d="M0 0 C0.66 0.33 1.32 0.66 2 1 C0.68 4.3 -0.64 7.6 -2 11 C-3.17348213 7.47955362 -2.83679382 5.57539179 -2 2 C-1.34 1.34 -0.68 0.68 0 0 Z " fill="#221701" transform="translate(173,167)"/>
<path d="M0 0 C0.99 0.33 1.98 0.66 3 1 C2.67 1.99 2.34 2.98 2 4 C1.34 4 0.68 4 0 4 C0 4.66 0 5.32 0 6 C-0.66 6 -1.32 6 -2 6 C-1.125 1.125 -1.125 1.125 0 0 Z " fill="#DEB70A" transform="translate(155,80)"/>
<path d="M0 0 C0.66 0 1.32 0 2 0 C1.67 2.31 1.34 4.62 1 7 C0.01 7 -0.98 7 -2 7 C-1.34 4.69 -0.68 2.38 0 0 Z " fill="#221000" transform="translate(131,62)"/>
<path d="M0 0 C3 1 3 1 4 3 C3.01 3 2.02 3 1 3 C1 3.66 1 4.32 1 5 C1.99 4.67 2.98 4.34 4 4 C4 4.66 4 5.32 4 6 C2.68 6 1.36 6 0 6 C-1.125 2.25 -1.125 2.25 0 0 Z " fill="#595A59" transform="translate(83,269)"/>
<path d="M0 0 C2 3 2 3 1.625 5.6875 C1.41875 6.450625 1.2125 7.21375 1 8 C0.67 7.34 0.34 6.68 0 6 C-0.66 6 -1.32 6 -2 6 C-1.34 4.02 -0.68 2.04 0 0 Z " fill="#271B00" transform="translate(252,113)"/>
<path d="M0 0 C0.99 0 1.98 0 3 0 C4.0625 1.8125 4.0625 1.8125 5 4 C4.67 4.99 4.34 5.98 4 7 C0 2.25 0 2.25 0 0 Z " fill="#E3CC1F" transform="translate(226,78)"/>
<path d="M0 0 C2.64 0.99 5.28 1.98 8 3 C7.67 4.32 7.34 5.64 7 7 C4.33636533 5.66818267 2.24401957 3.94875383 0 2 C0 1.34 0 0.68 0 0 Z " fill="#ECC811" transform="translate(119,70)"/>
</svg>
