<?xml version="1.0" encoding="UTF-8"?>
<svg version="1.1" xmlns="http://www.w3.org/2000/svg" width="236" height="420">
<path d="M0 0 C77.88 0 155.76 0 236 0 C236 138.6 236 277.2 236 420 C158.12 420 80.24 420 0 420 C0 281.4 0 142.8 0 0 Z " fill="#000000" transform="translate(0,0)"/>
<path d="M0 0 C77.88 0 155.76 0 236 0 C236 62.04 236 124.08 236 188 C235.01 188 234.02 188 233 188 C233 187.34 233 186.68 233 186 C227.555 186.99 227.555 186.99 222 188 C221.67 188.99 221.34 189.98 221 191 C219.15234375 191.73046875 219.15234375 191.73046875 216.9375 192.1875 C216.20402344 192.34605469 215.47054687 192.50460938 214.71484375 192.66796875 C214.14894531 192.77753906 213.58304688 192.88710937 213 193 C213 192.01 213 191.02 213 190 C212.34 190 211.68 190 211 190 C211 191.32 211 192.64 211 194 C210.34 194 209.68 194 209 194 C207.9359289 192.37349132 206.95105959 190.69507033 206 189 C205.33742187 187.94683594 204.67484375 186.89367187 203.9921875 185.80859375 C203.29351562 184.69613281 202.59484375 183.58367187 201.875 182.4375 C201.17117187 181.32246094 200.46734375 180.20742187 199.7421875 179.05859375 C198.32512199 176.57078592 197.44945887 174.78528298 197 172 C196.154375 172.03480469 195.30875 172.06960937 194.4375 172.10546875 C187.49430443 172.27115864 182.30389938 171.96654088 176 169 C176.57621094 170.14984375 177.15242187 171.2996875 177.74609375 172.484375 C179.18678848 175.36449568 180.61654933 178.24956623 182.03515625 181.140625 C182.36966797 181.81867188 182.70417969 182.49671875 183.04882812 183.1953125 C183.73157529 184.5792239 184.41120419 185.96467754 185.08789062 187.3515625 C186.8072686 190.82357528 188.51435168 193.99554035 191 197 C190.67 197.66 190.34 198.32 190 199 C185.7755266 193.93063192 182.63700412 188.68479172 179.6875 182.8125 C179.33816406 182.12349609 178.98882812 181.43449219 178.62890625 180.72460938 C176.87945451 177.16716125 175.53249999 173.97445646 175 170 C171.63408573 172.72478774 170.55773724 176.06856792 169 180 C169.66 180 170.32 180 171 180 C171 181.32 171 182.64 171 184 C171.66 183.67 172.32 183.34 173 183 C173 189.6 173 196.2 173 203 C153.94052565 203.39493922 137.21096631 202.44837596 118.953125 196.8671875 C114.02343632 195.41958051 109.08484314 194.7015452 104 194 C99.33333333 193.33333333 94.66666667 192.66666667 90 192 C90 190.35 90 188.7 90 187 C90.66 187 91.32 187 92 187 C91.39382363 183.60541235 90.43354125 181.4687371 88 179 C84.44370428 178.27837013 80.96410717 178.05515416 77.34765625 177.78515625 C73.19159763 176.81039804 72.56203226 175.2654359 70 172 C66.97522454 171.18667844 66.97522454 171.18667844 63.75 171.1875 C62.67234375 171.13980469 61.5946875 171.09210938 60.484375 171.04296875 C59.66453125 171.02878906 58.8446875 171.01460937 58 171 C58 170.67 58 170.34 58 170 C60.64 170 63.28 170 66 170 C66 169.34 66 168.68 66 168 C62.7 168 59.4 168 56 168 C56.0721875 166.90300781 56.144375 165.80601562 56.21875 164.67578125 C56.31258366 163.22135956 56.406329 161.76693217 56.5 160.3125 C56.54769531 159.59126953 56.59539063 158.87003906 56.64453125 158.12695312 C56.88203519 154.41171286 57.05874637 150.72305126 57 147 C56.01 147 55.02 147 54 147 C53.979375 148.299375 53.95875 149.59875 53.9375 150.9375 C53.92589844 151.66839844 53.91429687 152.39929688 53.90234375 153.15234375 C53.79438816 155.01732141 53.79438816 155.01732141 55 156 C55.07244053 158.01964199 55.08377188 160.04167124 55.0625 162.0625 C55.05347656 163.16722656 55.04445312 164.27195313 55.03515625 165.41015625 C55.02355469 166.26480469 55.01195312 167.11945313 55 168 C53.02 168 51.04 168 49 168 C49 168.66 49 169.32 49 170 C50.98 170 52.96 170 55 170 C55 170.33 55 170.66 55 171 C49.72 171 44.44 171 39 171 C39.020625 172.423125 39.04125 173.84625 39.0625 175.3125 C39.10581883 178.30149956 38.96070434 180.11788698 38 183 C37.34 183 36.68 183 36 183 C36.33 184.32 36.66 185.64 37 187 C38.32 187 39.64 187 41 187 C41 187.66 41 188.32 41 189 C38.03 189 35.06 189 32 189 C32 188.34 32 187.68 32 187 C29.69 187 27.38 187 25 187 C25 187.99 25 188.98 25 190 C24.03320312 190.17015625 23.06640625 190.3403125 22.0703125 190.515625 C20.75510804 190.75987726 19.44000947 191.00470016 18.125 191.25 C16.84882813 191.48203125 15.57265625 191.7140625 14.2578125 191.953125 C8.93536411 193.15718703 8.93536411 193.15718703 0 197 C0 131.99 0 66.98 0 0 Z " fill="#343434" transform="translate(0,0)"/>
<path d="M0 0 C5.91685834 4.78035288 10.25207555 11.05804061 14.53515625 17.28125 C15.27958984 18.35826172 15.27958984 18.35826172 16.0390625 19.45703125 C24.45039028 33.03644757 27.15665323 50.69635611 23.765625 66.2421875 C21.89614122 73.10937492 19.36297259 79.7532059 16.53515625 86.28125 C9.37456912 86.77508359 3.60957824 85.37432082 -3.23046875 83.25390625 C-8.25978688 81.74146638 -13.26717006 80.9983622 -18.46484375 80.28125 C-23.13151042 79.61458333 -27.79817708 78.94791667 -32.46484375 78.28125 C-32.46484375 76.63125 -32.46484375 74.98125 -32.46484375 73.28125 C-31.80484375 73.28125 -31.14484375 73.28125 -30.46484375 73.28125 C-31.07102012 69.88666235 -32.0313025 67.7499871 -34.46484375 65.28125 C-38.02113947 64.55962013 -41.50073658 64.33640416 -45.1171875 64.06640625 C-49.27324612 63.09164804 -49.90281149 61.5466859 -52.46484375 58.28125 C-55.48961921 57.46792844 -55.48961921 57.46792844 -58.71484375 57.46875 C-59.7925 57.42105469 -60.87015625 57.37335938 -61.98046875 57.32421875 C-63.21023437 57.30294922 -63.21023437 57.30294922 -64.46484375 57.28125 C-64.46484375 56.95125 -64.46484375 56.62125 -64.46484375 56.28125 C-61.82484375 56.28125 -59.18484375 56.28125 -56.46484375 56.28125 C-56.46484375 55.62125 -56.46484375 54.96125 -56.46484375 54.28125 C-59.76484375 54.28125 -63.06484375 54.28125 -66.46484375 54.28125 C-66.39265625 53.18425781 -66.32046875 52.08726562 -66.24609375 50.95703125 C-66.15226009 49.50260956 -66.05851475 48.04818217 -65.96484375 46.59375 C-65.91714844 45.87251953 -65.86945313 45.15128906 -65.8203125 44.40820312 C-65.58280856 40.69296286 -65.40609738 37.00430126 -65.46484375 33.28125 C-66.45484375 33.28125 -67.44484375 33.28125 -68.46484375 33.28125 C-68.48546875 34.580625 -68.50609375 35.88 -68.52734375 37.21875 C-68.53894531 37.94964844 -68.55054688 38.68054688 -68.5625 39.43359375 C-68.67045559 41.29857141 -68.67045559 41.29857141 -67.46484375 42.28125 C-67.39240322 44.30089199 -67.38107187 46.32292124 -67.40234375 48.34375 C-67.41136719 49.44847656 -67.42039063 50.55320312 -67.4296875 51.69140625 C-67.44128906 52.54605469 -67.45289063 53.40070313 -67.46484375 54.28125 C-69.44484375 54.28125 -71.42484375 54.28125 -73.46484375 54.28125 C-73.46484375 54.94125 -73.46484375 55.60125 -73.46484375 56.28125 C-71.48484375 56.28125 -69.50484375 56.28125 -67.46484375 56.28125 C-67.46484375 56.61125 -67.46484375 56.94125 -67.46484375 57.28125 C-72.74484375 57.28125 -78.02484375 57.28125 -83.46484375 57.28125 C-83.44421875 58.704375 -83.42359375 60.1275 -83.40234375 61.59375 C-83.35902492 64.58274956 -83.50413941 66.39913698 -84.46484375 69.28125 C-85.12484375 69.28125 -85.78484375 69.28125 -86.46484375 69.28125 C-86.13484375 70.60125 -85.80484375 71.92125 -85.46484375 73.28125 C-84.14484375 73.28125 -82.82484375 73.28125 -81.46484375 73.28125 C-81.46484375 73.94125 -81.46484375 74.60125 -81.46484375 75.28125 C-84.43484375 75.28125 -87.40484375 75.28125 -90.46484375 75.28125 C-90.46484375 74.62125 -90.46484375 73.96125 -90.46484375 73.28125 C-92.77484375 73.28125 -95.08484375 73.28125 -97.46484375 73.28125 C-97.46484375 74.27125 -97.46484375 75.26125 -97.46484375 76.28125 C-102.41484375 76.77625 -102.41484375 76.77625 -107.46484375 77.28125 C-113.41300414 59.51643168 -113.51185486 42.17684289 -105.95703125 24.81640625 C-102.1613757 17.25157648 -97.3926834 11.27683639 -91.46484375 5.28125 C-90.66046875 4.394375 -89.85609375 3.5075 -89.02734375 2.59375 C-62.66020204 -21.20098764 -27.84205911 -19.41443107 0 0 Z " fill="#D7D7D7" transform="translate(122.46484375,113.71875)"/>
<path d="M0 0 C0.99 0 1.98 0 3 0 C4.79604028 7.40866616 3.78875666 13.73317607 2 21 C5.3 21 8.6 21 12 21 C12 21.66 12 22.32 12 23 C12.763125 23.2475 13.52625 23.495 14.3125 23.75 C17 25 17 25 18.23828125 27.0234375 C20.82258336 29.92289841 23.07562656 29.60992743 26.875 29.875 C34.72536318 30.78424579 34.72536318 30.78424579 37.4375 33.875 C39 37 39 37 38.8125 39.375 C38.544375 39.91125 38.27625 40.4475 38 41 C35 40 35 40 33 37 C29.41642759 36.74984127 29.41642759 36.74984127 26 37 C25.67 39.64 25.34 42.28 25 45 C18.4 45 11.8 45 5 45 C4.67 44.34 4.34 43.68 4 43 C2.02 43 0.04 43 -2 43 C-2.33 41.02 -2.66 39.04 -3 37 C-4.98 37.495 -4.98 37.495 -7 38 C-6.01 38.66 -5.02 39.32 -4 40 C-4 40.99 -4 41.98 -4 43 C-4.66 43 -5.32 43 -6 43 C-6 42.34 -6 41.68 -6 41 C-7.98 41.495 -7.98 41.495 -10 42 C-10.33 41.34 -10.66 40.68 -11 40 C-12.485 40.495 -12.485 40.495 -14 41 C-16.1875 40.5625 -16.1875 40.5625 -18 40 C-18 38.68 -18 37.36 -18 36 C-17.34 36 -16.68 36 -16 36 C-15.67 32.04 -15.34 28.08 -15 24 C-11.7 23.67 -8.4 23.34 -5 23 C-5 22.34 -5 21.68 -5 21 C-3.02 21 -1.04 21 1 21 C0.85833643 19.08302063 0.71150416 17.16642277 0.5625 15.25 C0.48128906 14.18265625 0.40007813 13.1153125 0.31640625 12.015625 C0.08438297 9.11045794 0.08438297 9.11045794 -0.5625 6.78125 C-1.16435687 4.33083275 -0.60379557 2.41518228 0 0 Z " fill="#0E0E0E" transform="translate(54,147)"/>
<path d="M0 0 C0.99 0 1.98 0 3 0 C4.79604028 7.40866616 3.78875666 13.73317607 2 21 C5.3 21 8.6 21 12 21 C12 21.66 12 22.32 12 23 C12.78375 23.2475 13.5675 23.495 14.375 23.75 C17.32317108 25.15389099 17.9024777 26.00675737 19 29 C17 31 17 31 15.0546875 31.1953125 C13.03645833 31.13020833 11.01822917 31.06510417 9 31 C8.87625 30.195625 8.7525 29.39125 8.625 28.5625 C8.41875 27.716875 8.2125 26.87125 8 26 C7.34 25.67 6.68 25.34 6 25 C6 26.98 6 28.96 6 31 C-0.15234375 31.09765625 -0.15234375 31.09765625 -2 31 C-3 30 -3 30 -3.0625 27.4375 C-3.041875 26.633125 -3.02125 25.82875 -3 25 C-3.66 25 -4.32 25 -5 25 C-5 26.98 -5 28.96 -5 31 C-7.64 31 -10.28 31 -13 31 C-13.144375 30.21625 -13.28875 29.4325 -13.4375 28.625 C-13.87798925 26.03578982 -13.87798925 26.03578982 -15 24 C-11.7 23.67 -8.4 23.34 -5 23 C-5 22.34 -5 21.68 -5 21 C-3.02 21 -1.04 21 1 21 C0.85833643 19.08302063 0.71150416 17.16642277 0.5625 15.25 C0.48128906 14.18265625 0.40007813 13.1153125 0.31640625 12.015625 C0.08438297 9.11045794 0.08438297 9.11045794 -0.5625 6.78125 C-1.16435687 4.33083275 -0.60379557 2.41518228 0 0 Z " fill="#232323" transform="translate(54,147)"/>
<path d="M0 0 C0.43173825 5.92869126 -0.83103188 9.68715537 -3.5 14.9375 C-3.83386719 15.62134766 -4.16773438 16.30519531 -4.51171875 17.00976562 C-5.32893039 18.67921227 -6.1627747 20.34049985 -7 22 C-10.3 22 -13.6 22 -17 22 C-17 21.34 -17 20.68 -17 20 C-16.319375 19.38125 -15.63875 18.7625 -14.9375 18.125 C-12.75377383 16.2249273 -12.75377383 16.2249273 -13.0625 13.9375 C-14.08714115 11.8199083 -15.31288547 10.61376173 -17 9 C-17 8.34 -17 7.68 -17 7 C-17.66 7 -18.32 7 -19 7 C-19 6.34 -19 5.68 -19 5 C-16.39985473 3.96772138 -13.79573631 2.94894848 -11.1875 1.9375 C-10.44951172 1.64294922 -9.71152344 1.34839844 -8.95117188 1.04492188 C-3.33984375 -1.11328125 -3.33984375 -1.11328125 0 0 Z " fill="#0C0C0C" transform="translate(171,180)"/>
<path d="M0 0 C0.33 0 0.66 0 1 0 C1 6.6 1 13.2 1 20 C-7.58 20 -16.16 20 -25 20 C-25 19.67 -25 19.34 -25 19 C-23.35 19 -21.7 19 -20 19 C-20 17.35 -20 15.7 -20 14 C-19.01 13.67 -18.02 13.34 -17 13 C-17.33 14.98 -17.66 16.96 -18 19 C-14.7 19 -11.4 19 -8 19 C-7.608125 17.72125 -7.21625 16.4425 -6.8125 15.125 C-5.05558013 9.81200673 -2.60879653 4.93918395 0 0 Z " fill="#333333" transform="translate(172,183)"/>
<path d="M0 0 C-0.60951986 4.87615889 -2.74501073 8.71977509 -5 13 C-5.66944492 14.33194058 -6.33690395 15.66488733 -7 17 C-13.47058824 8.58823529 -13.47058824 8.58823529 -15 4 C-12.87607494 3.3299166 -10.75082476 2.66403203 -8.625 2 C-7.44164062 1.62875 -6.25828125 1.2575 -5.0390625 0.875 C-2 0 -2 0 0 0 Z " fill="#333333" transform="translate(170,181)"/>
<path d="M0 0 C0.38518799 0.4844458 0.77037598 0.9688916 1.16723633 1.46801758 C3.61103185 3.51075328 5.16530538 3.42445595 8.32421875 3.51171875 C9.86625977 3.56489258 9.86625977 3.56489258 11.43945312 3.61914062 C13.04723633 3.65297852 13.04723633 3.65297852 14.6875 3.6875 C15.77095703 3.72166016 16.85441406 3.75582031 17.97070312 3.79101562 C20.6470322 3.8735456 23.32303159 3.94267937 26 4 C26.66 2.68 27.32 1.36 28 0 C29 2 29 2 28 8 C21.4 8 14.8 8 8 8 C7.67 7.34 7.34 6.68 7 6 C5.02 6 3.04 6 1 6 C0.67 4.02 0.34 2.04 0 0 Z " fill="#4D4D4D" transform="translate(51,184)"/>
<path d="M0 0 C1.875 0.1875 1.875 0.1875 4 1 C4.99609375 3.19921875 4.99609375 3.19921875 6 6 C8.88304717 13.53695477 12.13637285 20.1717516 16.7421875 26.8203125 C17.36480469 27.89925781 17.36480469 27.89925781 18 29 C17.67 29.66 17.34 30.32 17 31 C12.7755266 25.93063192 9.63700412 20.68479172 6.6875 14.8125 C6.16349609 13.77899414 6.16349609 13.77899414 5.62890625 12.72460938 C3.87945451 9.16716125 2.53249999 5.97445646 2 2 C1.34 2 0.68 2 0 2 C0 1.34 0 0.68 0 0 Z " fill="#1F1F1F" transform="translate(173,168)"/>
<path d="M0 0 C2.00948183 0.01778303 4.01668765 0.16786374 6.01953125 0.33203125 C6.01953125 0.99203125 6.01953125 1.65203125 6.01953125 2.33203125 C4.69953125 2.66203125 3.37953125 2.99203125 2.01953125 3.33203125 C3.00953125 3.99203125 3.99953125 4.65203125 5.01953125 5.33203125 C5.01953125 6.32203125 5.01953125 7.31203125 5.01953125 8.33203125 C4.35953125 8.33203125 3.69953125 8.33203125 3.01953125 8.33203125 C3.01953125 7.67203125 3.01953125 7.01203125 3.01953125 6.33203125 C1.69953125 6.66203125 0.37953125 6.99203125 -0.98046875 7.33203125 C-1.31046875 6.67203125 -1.64046875 6.01203125 -1.98046875 5.33203125 C-2.97046875 5.33203125 -3.96046875 5.33203125 -4.98046875 5.33203125 C-3.05235036 0.51173527 -3.05235036 0.51173527 0 0 Z " fill="#4C4C4C" transform="translate(44.98046875,181.66796875)"/>
<path d="M0 0 C2.97 0 5.94 0 9 0 C9 1.65 9 3.3 9 5 C6.36 5 3.72 5 1 5 C0.67 3.35 0.34 1.7 0 0 Z " fill="#C9C9C9" transform="translate(51,173)"/>
<path d="M0 0 C0.66 0 1.32 0 2 0 C1.67 1.98 1.34 3.96 1 6 C4.3 6 7.6 6 11 6 C11.33 5.34 11.66 4.68 12 4 C12 4.66 12 5.32 12 6 C14.64 6 17.28 6 20 6 C20 6.33 20 6.66 20 7 C11.42 7 2.84 7 -6 7 C-6 6.67 -6 6.34 -6 6 C-4.35 6 -2.7 6 -1 6 C-1.020625 5.195625 -1.04125 4.39125 -1.0625 3.5625 C-1 1 -1 1 0 0 Z " fill="#1E1E1E" transform="translate(153,196)"/>
<path d="M0 0 C0.38067627 0.48895752 0.76135254 0.97791504 1.15356445 1.48168945 C3.68513678 3.563383 5.29618027 3.34450508 8.54296875 3.29296875 C9.61611328 3.28330078 10.68925781 3.27363281 11.79492188 3.26367188 C13.47424805 3.2259668 13.47424805 3.2259668 15.1875 3.1875 C16.88422852 3.16719727 16.88422852 3.16719727 18.61523438 3.14648438 C21.41063317 3.11109958 24.20507892 3.06172948 27 3 C27 4.32 27 5.64 27 7 C26.01 7 25.02 7 24 7 C24 6.34 24 5.68 24 5 C16.41 5.33 8.82 5.66 1 6 C0.67 4.02 0.34 2.04 0 0 Z " fill="#909090" transform="translate(51,184)"/>
<path d="M0 0 C2.64 0 5.28 0 8 0 C8 1.65 8 3.3 8 5 C5.36 5 2.72 5 0 5 C0 3.35 0 1.7 0 0 Z " fill="#D0D0D0" transform="translate(41,173)"/>
<path d="M0 0 C2.64 0 5.28 0 8 0 C8.33 0.99 8.66 1.98 9 3 C8.67 3.66 8.34 4.32 8 5 C5.69 5 3.38 5 1 5 C0.67 3.35 0.34 1.7 0 0 Z " fill="#C8C8C8" transform="translate(62,173)"/>
<path d="M0 0 C1.67542976 0.28604898 3.34385343 0.61781233 5 1 C4.67 2.65 4.34 4.3 4 6 C2.68 5.67 1.36 5.34 0 5 C-0.5625 3.0625 -0.5625 3.0625 -1 1 C-0.67 0.67 -0.34 0.34 0 0 Z " fill="#484848" transform="translate(82,186)"/>
<path d="M0 0 C0.66 0.33 1.32 0.66 2 1 C0.04225352 8.83098592 0.04225352 8.83098592 -3 12 C-3.66 12 -4.32 12 -5 12 C-3.85814266 7.52040582 -2.56984833 3.85477249 0 0 Z " fill="#0E0E0E" transform="translate(169,184)"/>
<path d="M0 0 C0.99 0 1.98 0 3 0 C3.98248524 4.0527516 4.08159574 7.83861737 4 12 C3.67 12 3.34 12 3 12 C2.67 10.02 2.34 8.04 2 6 C1.01 6.66 0.02 7.32 -1 8 C-0.67 5.36 -0.34 2.72 0 0 Z " fill="#484848" transform="translate(54,147)"/>
<path d="M0 0 C0.66 0.33 1.32 0.66 2 1 C2.05399736 2.45792884 2.09279177 3.91642712 2.125 5.375 C2.14820313 6.18710938 2.17140625 6.99921875 2.1953125 7.8359375 C2 10 2 10 0 12 C-0.19401633 10.18818595 -0.38004375 8.37551468 -0.5625 6.5625 C-0.66691406 5.55316406 -0.77132812 4.54382813 -0.87890625 3.50390625 C-0.91886719 2.67761719 -0.95882812 1.85132813 -1 1 C-0.67 0.67 -0.34 0.34 0 0 Z " fill="#020202" transform="translate(55,152)"/>
<path d="M0 0 C3.3 0 6.6 0 10 0 C10 0.66 10 1.32 10 2 C6.7 2.33 3.4 2.66 0 3 C0 2.01 0 1.02 0 0 Z " fill="#262626" transform="translate(56,168)"/>
<path d="M0 0 C0.66 0.66 1.32 1.32 2 2 C3.32 2 4.64 2 6 2 C6 2.66 6 3.32 6 4 C3.03 4 0.06 4 -3 4 C-3.33 3.01 -3.66 2.02 -4 1 C-2.125 0.375 -2.125 0.375 0 0 Z " fill="#C5C5C5" transform="translate(35,185)"/>
<path d="M0 0 C1.65 0 3.3 0 5 0 C5.33 1.98 5.66 3.96 6 6 C5.34 5.67 4.68 5.34 4 5 C4 4.34 4 3.68 4 3 C2.68 2.34 1.36 1.68 0 1 C0 0.67 0 0.34 0 0 Z " fill="#070707" transform="translate(46,184)"/>
<path d="M0 0 C1.65 0 3.3 0 5 0 C4.01 0.495 4.01 0.495 3 1 C3 1.66 3 2.32 3 3 C3.66 3.66 4.32 4.32 5 5 C3.35 5 1.7 5 0 5 C0 3.35 0 1.7 0 0 Z " fill="#C8C8C8" transform="translate(90,187)"/>
</svg>
